
<svg
  version="1.0"
  xmlns="http://www.w3.org/2000/svg"
  xmlns:xlink="http://www.w3.org/1999/xlink"
  width="2400"
  height="1800"
>
  
  <rect
    x="0"
    y="0"
    width="100%"
    height="100%"
    fill="#171717"
    fill-opacity="1"
  ></rect>
  <svg
    version="1.0"
    xmlns="http://www.w3.org/2000/svg"
    xmlns:xlink="http://www.w3.org/1999/xlink"
    x="0"
    y="0"
    width="2400"
    height="1800"
    viewBox="0 0 340.000000 250.000000"
    preserveAspectRatio="xMidYMid meet"
    color-interpolation-filters="sRGB"
  >
    <defs><linearGradient id="92" x1="0%" y1="0%" x2="100%" y2="0%"><stop offset="0%" stop-color="#fa71cd"/> <stop offset="100%" stop-color="#9b59b6"/></linearGradient><linearGradient id="93" x1="0%" y1="0%" x2="100%" y2="0%"><stop offset="0%" stop-color="#f9d423"/> <stop offset="100%" stop-color="#f83600"/></linearGradient><linearGradient id="94" x1="0%" y1="0%" x2="100%" y2="0%"><stop offset="0%" stop-color="#0064d2"/> <stop offset="100%" stop-color="#1cb0f6"/></linearGradient><linearGradient id="95" x1="0%" y1="0%" x2="100%" y2="0%"><stop offset="0%" stop-color="#f00978"/> <stop offset="100%" stop-color="#3f51b1"/></linearGradient><linearGradient id="96" x1="0%" y1="0%" x2="100%" y2="0%"><stop offset="0%" stop-color="#7873f5"/> <stop offset="100%" stop-color="#ec77ab"/></linearGradient><linearGradient id="97" x1="0%" y1="0%" x2="100%" y2="0%"><stop offset="0%" stop-color="#f9d423"/> <stop offset="100%" stop-color="#e14fad"/></linearGradient><linearGradient id="98" x1="0%" y1="0%" x2="100%" y2="0%"><stop offset="0%" stop-color="#009efd"/> <stop offset="100%" stop-color="#2af598"/></linearGradient><linearGradient id="99" x1="0%" y1="0%" x2="100%" y2="0%"><stop offset="0%" stop-color="#ffcc00"/> <stop offset="100%" stop-color="#00b140"/></linearGradient><linearGradient id="100" x1="0%" y1="0%" x2="100%" y2="0%"><stop offset="0%" stop-color="#d51007"/> <stop offset="100%" stop-color="#ff8177"/></linearGradient><linearGradient id="102" x1="0%" y1="0%" x2="100%" y2="0%"><stop offset="0%" stop-color="#a2b6df"/> <stop offset="100%" stop-color="#0c3483"/></linearGradient><linearGradient id="103" x1="0%" y1="0%" x2="100%" y2="0%"><stop offset="0%" stop-color="#7ac5d8"/> <stop offset="100%" stop-color="#eea2a2"/></linearGradient><linearGradient id="104" x1="0%" y1="0%" x2="100%" y2="0%"><stop offset="0%" stop-color="#00ecbc"/> <stop offset="100%" stop-color="#007adf"/></linearGradient><linearGradient id="105" x1="0%" y1="0%" x2="100%" y2="0%"><stop offset="0%" stop-color="#b88746"/> <stop offset="100%" stop-color="#fdf5a6"/></linearGradient></defs> <g class="iconmbgsvg" transform="translate(40.625,21.7445068359375)"><g fill="#edeae2" hollow-target="text"><g mask="url(#977ed2b3-7ca4-4d46-8fcd-0c4da57f2526)"><g><rect fill="#edeae2" fill-opacity="0" stroke-width="2" x="0" y="0" width="258.7500000000001" height="206.51098199463684" class="image-rect"/> <svg filter="url(#colors3991734276)" x="0" y="0" width="258.7500000000001" height="206.51098199463684" filtersec="colorsf5455874882" class="image-svg-svg primary" style="overflow: visible;"><svg xmlns="http://www.w3.org/2000/svg" xmlns:xlink="http://www.w3.org/1999/xlink" xml:space="preserve" version="1.1" viewBox="0 0 317 253" x="0px" y="0px" fill-rule="evenodd" clip-rule="evenodd"><defs/><g><path d="M113 105l15 0 0 -13 6 0 0 -16c6,-2 10,-6 13,-11l7 -1 0 -9 -2 0 0 -4 3 0 0 -10 2 0 0 10 3 0 0 4 -2 0 0 7 7 -1 0 44 8 0 0 -94 22 0 0 60 5 0 0 34 3 0 0 -58 10 -7 3 -7 3 0 0 -10 1 0 0 -14 0 0 0 -9 1 0 0 9 1 0 0 14 1 0 0 10 2 0 0 46 11 0 0 20 2 0 0 -44 23 0 0 67 56 7 -317 0 56 -7 0 -87 27 0 0 26 30 0 0 44zm15 51l0 2 37 0 0 -2 -2 0 0 2 -3 0 0 -2 -2 0 0 2 -2 0 0 -2 -6 0 0 2 -2 0 0 -2 -20 0zm0 3l0 2 24 0 0 -2 2 0 0 2 2 0 0 -2 2 0 0 2 2 0 0 -2 3 0 0 2 2 0 0 -2 -37 0zm0 3l0 2 20 0 0 0 2 0 0 0 2 0 0 0 2 0 0 0 6 0 0 0 3 0 0 0 2 0 0 -2 -37 0zm0 4l0 1 6 0 0 0 31 0 0 -1 -2 0 0 1 -3 0 0 -1 -6 0 0 1 -2 0 0 -1 -2 0 0 1 -2 0 0 -1 -20 0zm6 3l0 2 22 0 0 -2 -22 0zm0 4l0 2 14 0 0 -2 -14 0zm0 5l0 4 31 0 0 -4 -2 0 0 2 -3 0 0 -2 -6 0 0 2 -2 0 0 -2 -2 0 0 2 -2 0 0 -2 -14 0zm2 6c2,1 4,3 5,4l7 0 0 -2 2 0 0 2 6 0 0 -2 2 0 0 2 2 0 0 -2 3 0 0 2 2 0 0 -4 -7 0 0 1 -2 0 0 -1 -2 0 0 1 -2 0 0 -1 -16 0zm8 7c1,1 2,2 3,3l18 0 0 -3 -21 0zm10 6l0 3 4 0 0 -3 7 2 0 -2 -11 0zm0 6l0 2 -2 0 0 1 8 0 0 -1 -2 0 0 -2 -4 0zm1 7l0 1 2 0 0 -1 -2 0zm0 7l0 1 2 0 0 -1 -2 0zm10 -42l0 -2 -7 0 0 2 7 0zm-9 0l0 -2 -2 0 0 2 2 0zm-4 0l0 -2 -2 0 0 2 2 0zm13 -4l0 -2 -2 0 0 2 2 0zm-5 0l0 -2 -2 0 0 2 2 0zm13 -15l0 2 13 0 0 -2 -13 0zm0 3l0 2 9 0 0 -1 2 0 0 1 2 0 0 -1 3 0 0 1 2 0 0 -1 2 0 0 1 7 0 0 -2 -27 0zm0 3l0 2 27 0 0 -2 -7 0 0 0 -2 0 0 0 -2 0 0 0 -3 0 0 0 -2 0 0 0 -2 0 0 0 -9 0zm0 4l0 1 27 0 0 -1 -3 0 0 1 -2 0 0 -1 -2 0 0 1 -2 0 0 -1 -7 0 0 1 -2 0 0 -1 -9 0zm0 3l0 2 9 0 0 -2 -9 0zm0 4l0 2 13 0 0 -2 -13 0zm0 5l0 4 27 0 0 -4 -7 0 0 2 -2 0 0 -2 -2 0 0 2 -3 0 0 -2 -2 0 0 2 -2 0 0 -2 -9 0zm0 6l0 4 27 0 0 -4 -3 0 0 1 -2 0 0 -1 -2 0 0 1 -2 0 0 -1 -2 0 0 1 -3 0 0 -1 -13 0zm0 7l0 3 22 0 0 -3 -22 0zm0 6l0 3 3 0 0 -1 3 0 0 1 6 0 0 -1 2 0 0 1 2 0 0 -1 2 0 0 1 4 0 0 -3 -4 0 0 1 -2 0 0 -1 -6 0 0 1 -2 0 0 -1 -8 0zm0 6l0 3 3 0 0 -2 3 0 0 2 2 0 0 -2 2 0 0 2 2 0 0 -2 2 0 0 2 8 0 0 -3 -22 0zm0 7l0 1 22 0 0 -1 -4 0 0 1 -2 0 0 -1 -2 0 0 1 -2 0 0 -1 -2 0 0 1 -2 0 0 -1 -8 0zm0 7l0 2 3 0 0 -1 3 0 0 1 6 0 0 -1 2 0 0 1 8 0 0 -2 -22 0zm0 10l0 2 8 0 0 -2 -8 0zm0 9l0 3 22 0 0 -3 -8 0 0 2 -2 0 0 -2 -12 0zm0 11l0 1 22 0 0 -1 -22 0zm22 -18l0 -2 -4 0 0 2 4 0zm-6 0l0 -2 -6 0 0 2 6 0zm11 -54l0 -2 -3 0 0 2 3 0zm-5 0l0 -2 -2 0 0 2 2 0zm-4 0l0 -2 -2 0 0 2 2 0zm9 -4l0 -2 -3 0 0 2 3 0zm-5 0l0 -2 -6 0 0 2 6 0zm-9 0l0 -2 -2 0 0 2 2 0zm14 -13l0 -2 -3 0 0 2 3 0zm-5 0l0 -2 -6 0 0 2 6 0zm8 -2l0 2 44 0 0 -1 2 0 0 1 6 0 0 -1 2 0 0 1 4 0 0 -2 -58 0zm0 3l0 2 58 0 0 -2 -4 0 0 0 -2 0 0 0 -6 0 0 0 -2 0 0 0 -44 0zm0 3l0 2 9 0 0 0 2 0 0 0 2 0 0 0 2 0 0 0 2 0 0 0 2 0 0 0 14 0 0 -2 -33 0zm0 4l0 1 33 0 0 -1 -14 0 0 1 -2 0 0 -1 -2 0 0 1 -2 0 0 -1 -2 0 0 1 -2 0 0 -1 -9 0zm0 3l0 2 17 0 0 -2 -17 0zm0 4l0 2 4 0 0 -2 -4 0zm0 5l0 4 22 0 0 -1 11 0 0 -3 -18 0 0 2 -2 0 0 -2 -13 0zm0 6l0 4 9 0 0 -2 2 0 0 2 2 0 0 -2 2 0 0 2 7 0 0 -4 -3 0 0 1 -2 0 0 -1 -6 0 0 1 -2 0 0 -1 -2 0 0 1 -3 0 0 -1 -4 0zm0 7l0 3 22 0 0 -3 -22 0zm0 6l0 3 9 0 0 0 2 0 0 0 2 0 0 0 2 0 0 0 2 0 0 0 2 0 0 0 3 0 0 -3 -3 0 0 1 -2 0 0 -1 -10 0 0 1 -3 0 0 -1 -4 0zm0 6l0 3 4 0 0 -1 3 0 0 1 2 0 0 -1 2 0 0 1 2 0 0 -1 2 0 0 1 7 0 0 -3 -22 0zm0 7l0 1 9 0 0 -1 -9 0zm7 7l2 2 13 0 0 -2 -15 0zm9 10l0 2 4 0 0 -2 -4 0zm0 9l0 1 1 0 0 2 2 0 0 -2 1 0 0 -1 -4 0zm1 11l0 4 0 0 0 2 1 0 0 -2 1 0 0 -4 -2 0zm5 -36l0 -1 -3 0 0 1 3 0zm-5 0l0 -1 -6 0 0 1 6 0zm16 -36l0 -2 -14 0 0 2 14 0zm-16 0l0 -2 -6 0 0 2 6 0zm-8 0l0 -2 -2 0 0 2 2 0zm24 -4l0 -2 -14 0 0 2 14 0zm2 -9l0 2 23 0 0 -2 -8 0 0 2 -2 0 0 -2 -13 0zm0 4l0 1 9 0 0 -1 -9 0zm0 3l0 2 17 0 0 -1 2 0 0 1 4 0 0 -2 -23 0zm0 4l0 2 4 0 0 0 3 0 0 0 2 0 0 0 2 0 0 0 2 0 0 0 2 0 0 0 8 0 0 -2 -23 0zm0 5l0 4 9 0 0 -3 2 0 0 3 6 0 0 -3 2 0 0 3 4 0 0 -4 -23 0zm0 6l0 4 23 0 0 -4 -8 0 0 3 -2 0 0 -3 -2 0 0 3 -2 0 0 -3 -9 0zm0 7l0 3 4 0 0 -1 3 0 0 1 2 0 0 -1 2 0 0 1 6 0 0 -1 2 0 0 1 4 0 0 -3 -4 0 0 0 -2 0 0 0 -2 0 0 0 -2 0 0 0 -6 0 0 0 -3 0 0 0 -4 0zm0 6l0 3 23 0 0 -3 -23 0zm0 6l0 1 23 0 0 -1 -23 0zm23 -36l0 -1 -4 0 0 1 4 0zm-6 0l0 -1 -6 0 0 1 6 0zm6 -13l0 -1 -8 0 0 1 8 0zm-10 0l0 -1 -6 0 0 1 6 0zm-9 0l0 -1 -45 0 0 0 -2 0 0 0 -2 0 0 0 -2 0 0 0 -28 0 0 0 -3 0 0 0 -6 0 0 0 -2 0 0 0 -46 0 0 1 136 0zm-139 0l0 -1 -2 0 0 1 2 0zm-4 0l0 -1 -43 0 0 1 43 0zm-43 2l0 2 9 0 0 -2 3 0 0 2 8 0 0 -2 3 0 0 2 16 0 0 -1 2 0 0 1 6 0 0 -1 3 0 0 1 7 0 0 -2 -57 0zm0 3l0 2 57 0 0 -2 -7 0 0 1 -3 0 0 -1 -6 0 0 1 -2 0 0 -1 -16 0 0 1 -3 0 0 -1 -8 0 0 1 -3 0 0 -1 -9 0zm0 3l0 2 9 0 0 -2 -9 0zm0 4l0 1 43 0 0 -1 2 0 0 1 2 0 0 -1 3 0 0 1 7 0 0 -1 -39 0 0 0 -3 0 0 0 -3 0 0 0 -3 0 0 0 -9 0zm0 3l0 2 3 0 0 -2 -3 0zm0 4l0 2 9 0 0 -1 3 0 0 1 3 0 0 -1 3 0 0 1 21 0 0 0 2 0 0 0 2 0 0 0 2 0 0 0 2 0 0 0 3 0 0 0 2 0 0 0 2 0 0 0 3 0 0 -2 -3 0 0 0 -2 0 0 0 -11 0 0 0 -2 0 0 0 -39 0zm0 5l0 4 3 0 0 -2 3 0 0 2 3 0 0 -2 3 0 0 2 8 0 0 -2 3 0 0 2 16 0 0 -2 2 0 0 2 2 0 0 -2 2 0 0 2 2 0 0 -2 3 0 0 2 7 0 0 -4 -57 0zm0 6l0 4 3 0 0 -1 3 0 0 1 9 0 0 -1 3 0 0 1 39 0 0 -4 -3 0 0 3 -2 0 0 -3 -2 0 0 3 -3 0 0 -3 -6 0 0 3 -2 0 0 -3 -39 0zm0 7l0 3 9 0 0 -1 3 0 0 1 3 0 0 -1 3 0 0 1 2 0 0 -1 3 0 0 1 20 0 0 -1 2 0 0 1 2 0 0 -1 3 0 0 1 7 0 0 -3 -3 0 0 0 -2 0 0 0 -2 0 0 0 -3 0 0 0 -2 0 0 0 -2 0 0 0 -2 0 0 0 -2 0 0 0 -39 0zm0 6l0 3 3 0 0 -1 3 0 0 1 3 0 0 -1 3 0 0 1 3 0 0 -1 3 0 0 1 9 0 0 -1 30 0 0 -2 -57 0zm0 6l0 3 9 0 0 -1 3 0 0 1 3 0 0 -1 3 0 0 1 2 0 0 -1 3 0 0 1 4 0 0 -3 -27 0zm0 7l0 1 3 0 0 0 3 0 0 0 3 0 0 0 3 0 0 0 3 0 0 0 3 0 0 0 2 0 0 0 3 0 0 0 4 0 0 -1 -27 0zm0 7l0 2 3 0 0 -2 -3 0zm27 2l0 -2 -4 0 0 2 4 0zm-7 0l0 -2 -8 0 0 2 8 0zm-11 0l0 -2 -3 0 0 2 3 0zm48 -48l0 -2 -34 0 0 2 16 0 0 0 2 0 0 0 11 0 0 0 2 0 0 0 3 0zm-37 0l0 -2 -2 0 0 2 2 0zm-5 0l0 -2 -9 0 0 2 9 0zm42 -7l0 -2 -3 0 0 2 3 0zm-5 0l0 -2 -7 0 0 2 7 0zm-9 0l0 -2 -2 0 0 2 2 0zm-4 0l0 -2 -21 0 0 2 21 0zm-24 0l0 -2 -3 0 0 2 3 0zm190 -13l0 -2 -151 0 0 2 -2 0 0 -2 -7 0 0 2 -2 0 0 -2 -2 0 0 2 -2 0 0 -2 -39 0 0 2 96 0 0 -1 2 0 0 1 6 0 0 -1 3 0 0 1 28 0 0 0 2 0 0 0 2 0 0 0 2 0 0 0 64 0zm0 -3l0 -2 -98 0 0 2 19 0 0 -2 2 0 0 2 2 0 0 -2 3 0 0 2 2 0 0 -2 2 0 0 2 68 0zm-101 0l0 -2 -2 0 0 2 2 0zm-4 0l0 -2 -6 0 0 2 6 0zm-8 0l0 -2 -92 0 0 2 39 0 0 0 2 0 0 0 2 0 0 0 2 0 0 0 7 0 0 0 2 0 0 0 38 0zm113 -3l0 -2 -205 0 0 2 205 0zm0 -3l0 -2 -205 0 0 2 205 0zm0 -3l0 -1 8 -1 -221 0 8 1 0 1 205 0zm16 -3l16 -3 -269 0 16 3 237 0zm24 -4l16 -2 -317 0 16 2 285 0zm-85 62l2 0 0 -3 -2 0 0 3zm-4 0l2 0 0 -3 -2 0 0 3zm-5 0l3 0 0 -3 -3 0 0 3zm44 6l2 0 0 -3 -2 0 0 3zm-4 0l2 0 0 -3 -2 0 0 3zm-52 -94l2 0 0 3 -2 0 0 -3zm0 -4l2 0 0 3 -2 0 0 -3zm0 -9l2 0 0 3 -2 0 0 -3zm0 -5l2 0 0 3 -2 0 0 -3zm0 -4l2 0 0 3 -2 0 0 -3zm-4 27l2 0 0 3 -2 0 0 -3zm0 -5l2 0 0 3 -2 0 0 -3zm0 -9l2 0 0 3 -2 0 0 -3zm0 -4l2 0 0 3 -2 0 0 -3zm0 -9l2 0 0 3 -2 0 0 -3zm0 -5l2 0 0 3 -2 0 0 -3zm-5 32l3 0 0 3 -3 0 0 -3zm0 -9l3 0 0 3 -3 0 0 -3zm0 -5l3 0 0 3 -3 0 0 -3zm0 -9l3 0 0 3 -3 0 0 -3zm0 -4l3 0 0 3 -3 0 0 -3zm0 -5l3 0 0 3 -3 0 0 -3zm-4 32l2 0 0 3 -2 0 0 -3zm0 -14l2 0 0 3 -2 0 0 -3zm0 -4l2 0 0 3 -2 0 0 -3zm0 -5l2 0 0 3 -2 0 0 -3zm0 -9l2 0 0 3 -2 0 0 -3zm13 -4l2 0 0 2 -2 0 0 -2zm-4 0l2 0 0 2 -2 0 0 -2zm-5 0l3 0 0 2 -3 0 0 -2zm-26 36l3 0 0 3 -3 0 0 -3zm0 -4l3 0 0 2 -3 0 0 -2zm0 -5l3 0 0 3 -3 0 0 -3zm0 -4l3 0 0 2 -3 0 0 -2zm0 -5l3 0 0 3 -3 0 0 -3zm0 -4l3 0 0 2 -3 0 0 -2zm0 -9l3 0 0 2 -3 0 0 -2zm-4 31l2 0 0 3 -2 0 0 -3zm0 -9l2 0 0 3 -2 0 0 -3zm0 -4l2 0 0 2 -2 0 0 -2zm0 -9l2 0 0 2 -2 0 0 -2zm0 -5l2 0 0 3 -2 0 0 -3zm0 -9l2 0 0 3 -2 0 0 -3zm-4 32l2 0 0 2 -2 0 0 -2zm0 -9l2 0 0 2 -2 0 0 -2zm0 -5l2 0 0 3 -2 0 0 -3zm0 -9l2 0 0 3 -2 0 0 -3zm0 -4l2 0 0 2 -2 0 0 -2zm0 -5l2 0 0 3 -2 0 0 -3zm-4 36l2 0 0 3 -2 0 0 -3zm0 -9l2 0 0 3 -2 0 0 -3zm0 -9l2 0 0 3 -2 0 0 -3zm0 -9l2 0 0 3 -2 0 0 -3zm0 -4l2 0 0 2 -2 0 0 -2zm12 -10l3 0 0 3 -3 0 0 -3zm-4 0l2 0 0 3 -2 0 0 -3zm-8 0l2 0 0 3 -2 0 0 -3zm-40 39l2 0 0 3 -2 0 0 -3zm0 -14l2 0 0 3 -2 0 0 -3zm0 -9l2 0 0 3 -2 0 0 -3zm0 -4l2 0 0 3 -2 0 0 -3zm0 -9l2 0 0 3 -2 0 0 -3zm0 -5l2 0 0 3 -2 0 0 -3zm-5 37l3 0 0 2 -3 0 0 -2zm0 -5l3 0 0 3 -3 0 0 -3zm0 -9l3 0 0 3 -3 0 0 -3zm0 -9l3 0 0 3 -3 0 0 -3zm0 -5l3 0 0 3 -3 0 0 -3zm0 -4l3 0 0 3 -3 0 0 -3zm0 -5l3 0 0 3 -3 0 0 -3zm-4 41l2 0 0 3 -2 0 0 -3zm0 -4l2 0 0 2 -2 0 0 -2zm0 -10l2 0 0 3 -2 0 0 -3zm0 -4l2 0 0 3 -2 0 0 -3zm0 -9l2 0 0 3 -2 0 0 -3zm0 -5l2 0 0 3 -2 0 0 -3zm0 -9l2 0 0 3 -2 0 0 -3zm-4 41l2 0 0 3 -2 0 0 -3zm0 -9l2 0 0 3 -2 0 0 -3zm0 -5l2 0 0 3 -2 0 0 -3zm0 -9l2 0 0 3 -2 0 0 -3zm0 -4l2 0 0 3 -2 0 0 -3zm0 -5l2 0 0 3 -2 0 0 -3zm0 -4l2 0 0 3 -2 0 0 -3zm0 -5l2 0 0 3 -2 0 0 -3zm8 -4l3 0 0 3 -3 0 0 -3zm-4 0l2 0 0 3 -2 0 0 -3zm121 29l2 0 0 3 -2 0 0 -3zm0 -4l2 0 0 2 -2 0 0 -2zm0 -5l2 0 0 3 -2 0 0 -3zm0 -9l2 0 0 3 -2 0 0 -3zm0 -14l2 0 0 3 -2 0 0 -3zm0 -4l2 0 0 3 -2 0 0 -3zm-4 36l2 0 0 3 -2 0 0 -3zm0 -13l2 0 0 2 -2 0 0 -2zm0 -10l2 0 0 3 -2 0 0 -3zm0 -4l2 0 0 3 -2 0 0 -3zm0 -9l2 0 0 3 -2 0 0 -3zm0 -5l2 0 0 3 -2 0 0 -3zm-4 41l2 0 0 3 -2 0 0 -3zm0 -9l2 0 0 3 -2 0 0 -3zm0 -9l2 0 0 3 -2 0 0 -3zm0 -5l2 0 0 3 -2 0 0 -3zm0 -4l2 0 0 3 -2 0 0 -3zm0 -9l2 0 0 3 -2 0 0 -3zm0 -5l2 0 0 3 -2 0 0 -3zm-5 32l3 0 0 3 -3 0 0 -3zm0 -9l3 0 0 3 -3 0 0 -3zm0 -9l3 0 0 3 -3 0 0 -3zm0 -5l3 0 0 3 -3 0 0 -3zm0 -9l3 0 0 3 -3 0 0 -3zm13 -4l2 0 0 3 -2 0 0 -3zm-8 0l2 0 0 3 -2 0 0 -3zm43 52l2 0 0 3 -2 0 0 -3zm0 -9l2 0 0 3 -2 0 0 -3zm0 -4l2 0 0 2 -2 0 0 -2zm0 -9l2 0 0 2 -2 0 0 -2zm0 -9l2 0 0 2 -2 0 0 -2zm0 -5l2 0 0 3 -2 0 0 -3zm-4 41l2 0 0 3 -2 0 0 -3zm0 -9l2 0 0 3 -2 0 0 -3zm0 -14l2 0 0 3 -2 0 0 -3zm0 -9l2 0 0 3 -2 0 0 -3zm0 -4l2 0 0 2 -2 0 0 -2zm-4 31l2 0 0 3 -2 0 0 -3zm0 -9l2 0 0 3 -2 0 0 -3zm0 -9l2 0 0 3 -2 0 0 -3zm0 -4l2 0 0 2 -2 0 0 -2zm0 -5l2 0 0 3 -2 0 0 -3zm0 -9l2 0 0 3 -2 0 0 -3zm-5 41l3 0 0 3 -3 0 0 -3zm0 -23l3 0 0 3 -3 0 0 -3zm0 -13l3 0 0 2 -3 0 0 -2zm0 -5l3 0 0 3 -3 0 0 -3zm9 -4l2 0 0 2 -2 0 0 -2zm-4 0l2 0 0 2 -2 0 0 -2zm-58 2l2 0 0 3 -2 0 0 -3zm0 -4l2 0 0 2 -2 0 0 -2zm0 -10l2 0 0 3 -2 0 0 -3zm0 -4l2 0 0 3 -2 0 0 -3zm0 -9l2 0 0 3 -2 0 0 -3zm0 -5l2 0 0 3 -2 0 0 -3zm0 -4l2 0 0 3 -2 0 0 -3zm-4 32l2 0 0 2 -2 0 0 -2zm0 -5l2 0 0 3 -2 0 0 -3zm0 -5l2 0 0 3 -2 0 0 -3zm0 -9l2 0 0 3 -2 0 0 -3zm0 -4l2 0 0 3 -2 0 0 -3zm0 -9l2 0 0 3 -2 0 0 -3zm0 -5l2 0 0 3 -2 0 0 -3zm-4 41l2 0 0 3 -2 0 0 -3zm0 -9l2 0 0 3 -2 0 0 -3zm0 -5l2 0 0 3 -2 0 0 -3zm0 -4l2 0 0 3 -2 0 0 -3zm0 -9l2 0 0 3 -2 0 0 -3zm0 -5l2 0 0 3 -2 0 0 -3zm0 -4l2 0 0 3 -2 0 0 -3zm-5 32l3 0 0 2 -3 0 0 -2zm0 -5l3 0 0 3 -3 0 0 -3zm0 -9l3 0 0 3 -3 0 0 -3zm0 -5l3 0 0 3 -3 0 0 -3zm0 -4l3 0 0 3 -3 0 0 -3zm9 -18l2 0 0 2 -2 0 0 -2zm-9 0l3 0 0 2 -3 0 0 -2zm-100 83l3 0 0 4 -3 0 0 -4zm0 -12l3 0 0 4 -3 0 0 -4zm0 -12l3 0 0 3 -3 0 0 -3zm0 -13l3 0 0 4 -3 0 0 -4zm0 -12l3 0 0 4 -3 0 0 -4zm0 -6l3 0 0 4 -3 0 0 -4zm-5 49l3 0 0 4 -3 0 0 -4zm0 -6l3 0 0 4 -3 0 0 -4zm0 -6l3 0 0 3 -3 0 0 -3zm0 -12l3 0 0 3 -3 0 0 -3zm0 -7l3 0 0 4 -3 0 0 -4zm0 -6l3 0 0 4 -3 0 0 -4zm0 -6l3 0 0 4 -3 0 0 -4zm0 -6l3 0 0 4 -3 0 0 -4zm-6 55l3 0 0 4 -3 0 0 -4zm0 -6l3 0 0 4 -3 0 0 -4zm0 -12l3 0 0 3 -3 0 0 -3zm0 -6l3 0 0 3 -3 0 0 -3zm0 -13l3 0 0 4 -3 0 0 -4zm0 -6l3 0 0 4 -3 0 0 -4zm0 -6l3 0 0 4 -3 0 0 -4zm0 -6l3 0 0 4 -3 0 0 -4zm-6 43l3 0 0 4 -3 0 0 -4zm0 -12l3 0 0 3 -3 0 0 -3zm0 -6l3 0 0 3 -3 0 0 -3zm0 -13l3 0 0 4 -3 0 0 -4zm0 -12l3 0 0 4 -3 0 0 -4zm17 -6l3 0 0 4 -3 0 0 -4zm-11 0l3 0 0 4 -3 0 0 -4zm-6 0l3 0 0 4 -3 0 0 -4z"/></g></svg></svg> <defs><filter id="colors3991734276"><feColorMatrix type="matrix" values="0 0 0 0 0.29296875  0 0 0 0 0.29296875  0 0 0 0 0.30078125  0 0 0 1 0" class="icon-feColorMatrix "/></filter> <filter id="colorsf5455874882"><feColorMatrix type="matrix" values="0 0 0 0 0.99609375  0 0 0 0 0.99609375  0 0 0 0 0.99609375  0 0 0 1 0" class="icon-fecolormatrix"/></filter> <filter id="colorsb6058097437"><feColorMatrix type="matrix" values="0 0 0 0 0  0 0 0 0 0  0 0 0 0 0  0 0 0 1 0" class="icon-fecolormatrix"/></filter></defs></g><rect v-gra="id" width="270.75" height="218.510986328125" transform="translate(-6, -6)" style="pointer-events:none;" fill="url(#FSBt9ZK68sBpnT1WMUclT)"/></g> <g transform="translate(11.610000610351562,70.67079162597656)"><g fill-rule="" class="tp-name" transform="translate(0,0)"><g transform="scale(1)"><g><path d="M-118.30054682858253 5.260000000000007q7.183129805772394-14.61 14.366259611544788-29.229999999999997 2.309214096246933-1.4389599889981365e-16 4.61842819249388-2.877919977996282e-16-6.082568193944074 12.95-12.155309944925378 25.89 5.97447732135378-2.148649466341046e-15 11.958781085670317-2.521554416681415e-15 5.424196515439613-12.94 10.848393030879226-25.89 2.309214096246947-1.4389599889981453e-16 4.608601749531122-2.871796744000542e-16-5.296452756923829 13.339999999999998-10.592905513847644 26.66-0.4127106044356247 1.049999999999999-1.4543135584874376 1.8099999999999987-1.0514293970145707 0.7599999999999999-2.0930323510663835 0.7599999999999999 0 0 0 0-10.042624707933493-0.00999999999999916-20.10490230179249-0.009999999999998534 0.01965288592550195-1.2246467991471096e-18 0.01965288592550195-1.2246467991471096e-18m27.022718147570558 0.009999999999998102q3.3901228221497632-8.94 6.7802456442995265-17.89 2.4271314117999725-1.5124387969469805e-16 4.854262823599945-3.024877593893961e-16-0.4913221481376464 1.3800000000000008-0.9826442962752928 2.7700000000000014 1.7294539614445208-1.0200000000000014 3.4589079228890274-2.030000000000001 2.604007385129532-1.6226570088702464e-16 5.217841213221808-3.2514372517362243e-16-1.021950068126297 1.67-2.0537265792153656 3.34-1.650842417742485 1.0287033112837722e-16-3.311511278447728 2.0635298565632842e-16-2.377999196986211 1.4000000000000006-4.785477722860682 2.7900000000000014-1.9652885925505856 5.52-3.9305771851011713 11.02-2.623660271055034 1.6349034768617175e-16-5.247320542110068 3.269806953723435e-16 0 0 0 0m17.884126192210335-1.1144285872240917e-15q4.451378662127078-14.6 8.902757324254155-29.22 2.30921409624694-1.438959988998141e-16 4.608601749531122-2.871796744000542e-16-1.6017102029287227 5.670000000000002-3.2034204058574596 11.33 7.79236926946308-4.85572455861926e-16 15.574912095963404-9.70532588324278e-16-1.6311895318169896 7.670000000000001-3.2722055065967233 15.330000000000002-0.2161817451805703 1.0399999999999991-1.1103880547910836 1.799999999999999-0.9040327525732713 0.7599999999999999-1.965288592550586 0.7599999999999999 0 0 0 0-9.767484304976417 6.086494591762348e-16-19.534968609952827 1.2172989183524692e-15 0 0 0 0m6.1906590665343435-3.3400000000000003q5.699336918396704-3.551475717527327e-16 11.41832672271891-7.115197903046125e-16 1.3167433570088956-5.6 2.633486714017784-11.22-5.443849401365123 3.392271633638168e-16-10.877872359767494 6.7784200332806e-16-1.5918837599659788 5.620000000000001-3.1739410769691996 11.22 0 0 0 0m19.957505657351202 3.3399999999999985q1.0710822829400723-5.4799999999999995 2.1519910088428955-10.98 8.028203900569139 3.8791020224843175e-16 16.056407801138285-1.1235801520326212e-16 0.23583463110607217-1.79 0.46184281924938986-3.580000000000001-7.9102865850161095 4.929203366568097e-16-15.810746727069464 9.852283499140457e-16 0.32427261777084493-1.6600000000000001 0.6485452355416899-3.33 10.219500681263046-6.368163355566235e-16 20.439001362526096-1.2736326711132475e-15-0.7959418799829857 7.670000000000001-1.6017102029287258 15.330000000000002-0.1080908725902816 1.0399999999999991-0.9236856384987766 1.799999999999999-0.835247651833997 0.7599999999999998-1.886677048848561 0.7599999999999999 0 0 0 0-9.76748430497641 6.086494591762344e-16-19.534968609952827 1.2172989183524692e-15 0 0 0 0m5.827080676912487-3.3400000000000003q5.709163361359455-3.5575989515230627e-16 11.418326722718906-7.115197903046122e-16 0.2751404029570831-2.14 0.5502808059141662-4.3-5.620725374694678 3.502489845561432e-16-11.221797863463845 6.992733223131386e-16-0.37340483258461377 2.1599999999999997-0.7468096651692275 4.3 0 0 0 0m20.311257604010308 3.3399999999999985q0.7861154370202346-8.94 1.5722308740404691-17.89 10.19984779533754-6.355916887574763e-16 20.39969559067508-1.2711833775149525e-15 0.0393057718510136 8.950000000000001 0.06878510073927296 17.89-2.6236602710550323 1.6349034768617165e-16-5.247320542110065 3.269806953723433e-16 0.13757020147854027-7.26 0.2653139599943287-14.56-5.404543629514111 3.3677786976552215e-16-10.818913701990976 6.741680629306179e-16-0.4814957051748934 7.300000000000001-0.9531649673870323 14.56-2.6433131569805397 1.6471499448531907e-16-5.286626313961079 3.2942998897063815e-16 0 0 0 0m26.108858952034538-1.6269432726672588e-15q-0.30461973184534136-14.6-0.6092394636906827-29.22 10.553599741996647-6.576353311421287e-16 21.1268523699188-1.3164953090834046e-15 0.8647269807222573 7.18 1.7294539614445146 14.360000000000001 0.12774375851578718 1.0899999999999999-0.48149570517489193 1.8199999999999994-0.6288923496161881 0.7400000000000002-1.6213630888542356 0.7400000000000003 0 0 0 0-7.713757725761048 4.80673868665336e-16-15.4275154515221 9.613477373306721e-16 0.2653139599943291 6.16 0.5306279199886582 12.3-2.6236602710550314-7.246880720139536e-16-5.247320542110064-5.61197724327782e-16 0 0 0 0m4.579122420642864-15.629999999999999q6.328229268012889-3.943362693254478e-16 12.676111421951282-7.89897185450043e-16-0.5109750340631558-5.120000000000001-1.021950068126308-10.250000000000002-6.053088865055804 3.771912141373847e-16-12.096351287148856 7.537701048751958e-16 0.2260081881433181 5.130000000000001 0.4421899333238818 10.250000000000002 0 0 0 0m23.534330895793268 15.629999999999997q-1.2381318133068677-8.94-2.4664371836509846-17.89 2.4369578547627238-1.518562030942716e-16 4.893568595450956-3.0493705298769074e-16 1.1595202696048459 7.280000000000001 2.3190405392096918 14.55 5.679684032471195-3.5392292495358516e-16 11.35936806494239-7.078458499071703e-16-1.513272216263951-7.27-3.026544432527902-14.55 2.4271314117999725-1.5124387969469805e-16 4.864089266562696-3.031000827889697e-16 1.7589332903327812 7.670000000000001 3.5178665806655554 15.330000000000002 0.23583463110606537 1.0399999999999991-0.3242726177708519 1.799999999999999-0.5895865777651702 0.7599999999999998-1.6311895318169831 0.7599999999999999 0 0 0 0-9.75765786201366 6.080371357766608e-16-19.50548928106457 1.2154619481537482e-15 0 0 0 0m26.108858952034538-1.6269432726672588e-15q-3.59647812436757-14.62-7.202782691697898-29.25 2.328866982172442 3.4075930331015396e-15 4.647907521382133 3.263084710802152e-15 3.9207507421384222 14.629999999999999 7.831675041314086 29.25-2.633486714017785-1.6122541683145052e-15-5.276799870998321-1.4475391738291863e-15 0 0 0 0m9.344947257578035-5.823195529945663e-16q-0.47166926221214467-1.67-0.9433385244242753-3.34 8.283691417600712-5.16188625840609e-16 16.58703572112694-1.0336018984803659e-15-0.70750389331821-1.99-1.41500778663642-4-6.927642288740813 4.3168799669944185e-16-13.855284577481626 8.633759933988837e-16-1.021950068126311 6.368163355566276e-17-1.9554621495878421-0.7399999999999997-0.9236856384987733-0.7400000000000001-1.2283053703441162-1.7900000000000005 0 0 0 0-0.7762889940574739-2.7299999999999995-1.5525779881149617-5.46-0.29479328888258516-1.049999999999999 0.17687597332955934-1.799999999999999 0.47166926221213057-0.7600000000000016 1.4444871155246797-0.7600000000000017 0 0 0 0 9.433385244242807-5.878304635907292e-16 18.866770488485614-1.1756609271814584e-15 0.14739664444129966 1.67 0.28496684591984134 3.33-7.812022155388583 4.86797102661073e-16-15.624044310777165 9.73594205322146e-16 0.5895865777651843 1.9400000000000004 1.1889995984931125 3.880000000000001 6.8195514161505315-4.2495243930413144e-16 13.658755718226566-8.5112952540740995e-16 1.012123625163553-6.306931015608876e-17 2.004594364401604 0.7599999999999997 1.002297182200795 0.7600000000000001 1.38552845774816 1.8000000000000003 0 0 0 0 1.051429397014571 2.79 2.093032351066384 5.5600000000000005 0.3930577185101089 1.0399999999999996-0.05895865777651971 1.7999999999999994-0.4618428192493866 0.7599999999999998-1.5132722162639574 0.7599999999999999 0 0 0 0-9.777310747939168 6.092617825758084e-16-19.54479505291558 1.2179112417520428e-15 0 0 0 0m29.53828754603531-1.840644139118472e-15q-1.051429397014557 6.551860375438298e-17-2.1028587940291277-0.7599999999999997-1.0416029540518128-0.7599999999999997-1.4543135584874376-1.7999999999999998 0 0 0 0-3.036370875490645-7.66-6.082568193944063-15.330000000000002 10.219500681263053 1.1395405038436264e-15 20.439001362526092 5.027241682870034e-16 2.0340736932898644 4.16 4.068147386579715 8.330000000000002 0.5109750340631626 1.0399999999999991 0.1670495303668016 1.8099999999999987-0.35375194665910487 0.7500000000000002-1.38552845774816 0.7500000000000003 0 0 0 0-6.9374687317035715 4.3230032009901583e-16-13.874937463407143 8.646006401980317e-16 0.7566361081319858 1.82 1.5329251021894597 3.66 8.617790478334316-7.5905222635114545e-16 17.235580956668645-1.2960598477772604e-15 0.2849668459198273 1.67 0.5601072488769105 3.34-9.561129002758605 5.957906677851876e-16-19.102605119591693 1.1903566887712271e-15 0 0 0 0m-1.6213630888542399-10.34q5.53228738802991-3.4473807395998053e-16 11.084227661985306-6.907007947191073e-16-0.9924707392380373-2.1100000000000003-1.9751150355133305-4.220000000000001-5.44384940136513 3.3922716336381725e-16-10.877872359767501 6.778420033280604e-16 0.8843798666477695 2.1100000000000003 1.768759733295525 4.220000000000001 0 0 0 0" transform="translate(118.30054473876953, 23.989994049072266)"/></g> </g></g> <g fill-rule="" class="tp-slogan" fill="#edeae2" transform="translate(92.21409797668457,36.25)"> <g mask="url(#a00afa58-d06a-4b7a-9fcb-3d1e009a4d09)"><g><rect stroke-width="2" class="i-icon-bg" x="0" y="0" width="51.101802825927734" height="15.919402122497559" fill-opacity="1"/> </g> <g transform="translate(5,2)"><g transform="scale(1, 1)" fill="#171717"><g transform="scale(1.2200000000000002)"><path d="M10.76 0L8.94 0.16L8.60-6.48L6.25-1.62L6.56-0.97L5.06-0.34L2.47-6.05L1.61 0.16L0.40 0L1.02-8.57L0.62-9.36L2.48-9.60L5.60-3L7.96-9.60L10.01-9.36L9.62-8.58L10.76 0ZM22.94-0.01L21.11 0.16L20.47-1.76L16.37-1.76L15.53 0.16L14.28 0L17.74-9.60L19.60-9.14L19.34-8.58L22.94-0.01ZM18.71-7.12L16.84-2.84L20.00-3.19L18.71-7.12ZM28.69 0L27.20 0.17L27.00-8.03L26.41-7.94L26.17-9Q26.84-9.14 28.28-9.31Q29.72-9.48 30.71-9.48L30.71-9.48Q31.64-9.48 32.42-9.11Q33.19-8.74 33.64-8.06Q34.09-7.39 34.09-6.50L34.09-6.50Q34.09-5.38 33.61-4.65Q33.12-3.92 32.34-3.58Q31.56-3.24 30.66-3.24L30.66-3.24Q29.70-3.24 28.69-3.68L28.69-3.68L28.69 0ZM30.40-4.50L30.40-4.50Q30.96-4.50 31.41-4.69Q31.86-4.88 32.14-5.31Q32.41-5.74 32.41-6.43L32.41-6.43Q32.41-7.03 32.13-7.42Q31.85-7.81 31.43-8.01Q31.01-8.21 30.58-8.21L30.58-8.21Q29.70-8.21 28.69-8.16L28.69-8.16L28.69-4.82Q29.62-4.50 30.40-4.50Z" transform="translate(-0.396, 9.6)"/></g></g></g></g></g></g></g></g><mask id="978703b5-5295-4d75-abf1-84efdd72d6b8"><g fill="white"><g><rect fill-opacity="1" stroke-width="2" x="0" y="0" width="258.7500000000001" height="206.51098199463684" class="image-rect"/> <svg x="0" y="0" width="258.7500000000001" height="206.51098199463684" class="image-svg-svg primary" style="overflow: visible;" filter="url(#colorsf5455874882)"><svg xmlns="http://www.w3.org/2000/svg" xmlns:xlink="http://www.w3.org/1999/xlink" xml:space="preserve" version="1.1" viewBox="0 0 317 253" x="0px" y="0px" fill-rule="evenodd" clip-rule="evenodd"><defs/><g><path d="M113 105l15 0 0 -13 6 0 0 -16c6,-2 10,-6 13,-11l7 -1 0 -9 -2 0 0 -4 3 0 0 -10 2 0 0 10 3 0 0 4 -2 0 0 7 7 -1 0 44 8 0 0 -94 22 0 0 60 5 0 0 34 3 0 0 -58 10 -7 3 -7 3 0 0 -10 1 0 0 -14 0 0 0 -9 1 0 0 9 1 0 0 14 1 0 0 10 2 0 0 46 11 0 0 20 2 0 0 -44 23 0 0 67 56 7 -317 0 56 -7 0 -87 27 0 0 26 30 0 0 44zm15 51l0 2 37 0 0 -2 -2 0 0 2 -3 0 0 -2 -2 0 0 2 -2 0 0 -2 -6 0 0 2 -2 0 0 -2 -20 0zm0 3l0 2 24 0 0 -2 2 0 0 2 2 0 0 -2 2 0 0 2 2 0 0 -2 3 0 0 2 2 0 0 -2 -37 0zm0 3l0 2 20 0 0 0 2 0 0 0 2 0 0 0 2 0 0 0 6 0 0 0 3 0 0 0 2 0 0 -2 -37 0zm0 4l0 1 6 0 0 0 31 0 0 -1 -2 0 0 1 -3 0 0 -1 -6 0 0 1 -2 0 0 -1 -2 0 0 1 -2 0 0 -1 -20 0zm6 3l0 2 22 0 0 -2 -22 0zm0 4l0 2 14 0 0 -2 -14 0zm0 5l0 4 31 0 0 -4 -2 0 0 2 -3 0 0 -2 -6 0 0 2 -2 0 0 -2 -2 0 0 2 -2 0 0 -2 -14 0zm2 6c2,1 4,3 5,4l7 0 0 -2 2 0 0 2 6 0 0 -2 2 0 0 2 2 0 0 -2 3 0 0 2 2 0 0 -4 -7 0 0 1 -2 0 0 -1 -2 0 0 1 -2 0 0 -1 -16 0zm8 7c1,1 2,2 3,3l18 0 0 -3 -21 0zm10 6l0 3 4 0 0 -3 7 2 0 -2 -11 0zm0 6l0 2 -2 0 0 1 8 0 0 -1 -2 0 0 -2 -4 0zm1 7l0 1 2 0 0 -1 -2 0zm0 7l0 1 2 0 0 -1 -2 0zm10 -42l0 -2 -7 0 0 2 7 0zm-9 0l0 -2 -2 0 0 2 2 0zm-4 0l0 -2 -2 0 0 2 2 0zm13 -4l0 -2 -2 0 0 2 2 0zm-5 0l0 -2 -2 0 0 2 2 0zm13 -15l0 2 13 0 0 -2 -13 0zm0 3l0 2 9 0 0 -1 2 0 0 1 2 0 0 -1 3 0 0 1 2 0 0 -1 2 0 0 1 7 0 0 -2 -27 0zm0 3l0 2 27 0 0 -2 -7 0 0 0 -2 0 0 0 -2 0 0 0 -3 0 0 0 -2 0 0 0 -2 0 0 0 -9 0zm0 4l0 1 27 0 0 -1 -3 0 0 1 -2 0 0 -1 -2 0 0 1 -2 0 0 -1 -7 0 0 1 -2 0 0 -1 -9 0zm0 3l0 2 9 0 0 -2 -9 0zm0 4l0 2 13 0 0 -2 -13 0zm0 5l0 4 27 0 0 -4 -7 0 0 2 -2 0 0 -2 -2 0 0 2 -3 0 0 -2 -2 0 0 2 -2 0 0 -2 -9 0zm0 6l0 4 27 0 0 -4 -3 0 0 1 -2 0 0 -1 -2 0 0 1 -2 0 0 -1 -2 0 0 1 -3 0 0 -1 -13 0zm0 7l0 3 22 0 0 -3 -22 0zm0 6l0 3 3 0 0 -1 3 0 0 1 6 0 0 -1 2 0 0 1 2 0 0 -1 2 0 0 1 4 0 0 -3 -4 0 0 1 -2 0 0 -1 -6 0 0 1 -2 0 0 -1 -8 0zm0 6l0 3 3 0 0 -2 3 0 0 2 2 0 0 -2 2 0 0 2 2 0 0 -2 2 0 0 2 8 0 0 -3 -22 0zm0 7l0 1 22 0 0 -1 -4 0 0 1 -2 0 0 -1 -2 0 0 1 -2 0 0 -1 -2 0 0 1 -2 0 0 -1 -8 0zm0 7l0 2 3 0 0 -1 3 0 0 1 6 0 0 -1 2 0 0 1 8 0 0 -2 -22 0zm0 10l0 2 8 0 0 -2 -8 0zm0 9l0 3 22 0 0 -3 -8 0 0 2 -2 0 0 -2 -12 0zm0 11l0 1 22 0 0 -1 -22 0zm22 -18l0 -2 -4 0 0 2 4 0zm-6 0l0 -2 -6 0 0 2 6 0zm11 -54l0 -2 -3 0 0 2 3 0zm-5 0l0 -2 -2 0 0 2 2 0zm-4 0l0 -2 -2 0 0 2 2 0zm9 -4l0 -2 -3 0 0 2 3 0zm-5 0l0 -2 -6 0 0 2 6 0zm-9 0l0 -2 -2 0 0 2 2 0zm14 -13l0 -2 -3 0 0 2 3 0zm-5 0l0 -2 -6 0 0 2 6 0zm8 -2l0 2 44 0 0 -1 2 0 0 1 6 0 0 -1 2 0 0 1 4 0 0 -2 -58 0zm0 3l0 2 58 0 0 -2 -4 0 0 0 -2 0 0 0 -6 0 0 0 -2 0 0 0 -44 0zm0 3l0 2 9 0 0 0 2 0 0 0 2 0 0 0 2 0 0 0 2 0 0 0 2 0 0 0 14 0 0 -2 -33 0zm0 4l0 1 33 0 0 -1 -14 0 0 1 -2 0 0 -1 -2 0 0 1 -2 0 0 -1 -2 0 0 1 -2 0 0 -1 -9 0zm0 3l0 2 17 0 0 -2 -17 0zm0 4l0 2 4 0 0 -2 -4 0zm0 5l0 4 22 0 0 -1 11 0 0 -3 -18 0 0 2 -2 0 0 -2 -13 0zm0 6l0 4 9 0 0 -2 2 0 0 2 2 0 0 -2 2 0 0 2 7 0 0 -4 -3 0 0 1 -2 0 0 -1 -6 0 0 1 -2 0 0 -1 -2 0 0 1 -3 0 0 -1 -4 0zm0 7l0 3 22 0 0 -3 -22 0zm0 6l0 3 9 0 0 0 2 0 0 0 2 0 0 0 2 0 0 0 2 0 0 0 2 0 0 0 3 0 0 -3 -3 0 0 1 -2 0 0 -1 -10 0 0 1 -3 0 0 -1 -4 0zm0 6l0 3 4 0 0 -1 3 0 0 1 2 0 0 -1 2 0 0 1 2 0 0 -1 2 0 0 1 7 0 0 -3 -22 0zm0 7l0 1 9 0 0 -1 -9 0zm7 7l2 2 13 0 0 -2 -15 0zm9 10l0 2 4 0 0 -2 -4 0zm0 9l0 1 1 0 0 2 2 0 0 -2 1 0 0 -1 -4 0zm1 11l0 4 0 0 0 2 1 0 0 -2 1 0 0 -4 -2 0zm5 -36l0 -1 -3 0 0 1 3 0zm-5 0l0 -1 -6 0 0 1 6 0zm16 -36l0 -2 -14 0 0 2 14 0zm-16 0l0 -2 -6 0 0 2 6 0zm-8 0l0 -2 -2 0 0 2 2 0zm24 -4l0 -2 -14 0 0 2 14 0zm2 -9l0 2 23 0 0 -2 -8 0 0 2 -2 0 0 -2 -13 0zm0 4l0 1 9 0 0 -1 -9 0zm0 3l0 2 17 0 0 -1 2 0 0 1 4 0 0 -2 -23 0zm0 4l0 2 4 0 0 0 3 0 0 0 2 0 0 0 2 0 0 0 2 0 0 0 2 0 0 0 8 0 0 -2 -23 0zm0 5l0 4 9 0 0 -3 2 0 0 3 6 0 0 -3 2 0 0 3 4 0 0 -4 -23 0zm0 6l0 4 23 0 0 -4 -8 0 0 3 -2 0 0 -3 -2 0 0 3 -2 0 0 -3 -9 0zm0 7l0 3 4 0 0 -1 3 0 0 1 2 0 0 -1 2 0 0 1 6 0 0 -1 2 0 0 1 4 0 0 -3 -4 0 0 0 -2 0 0 0 -2 0 0 0 -2 0 0 0 -6 0 0 0 -3 0 0 0 -4 0zm0 6l0 3 23 0 0 -3 -23 0zm0 6l0 1 23 0 0 -1 -23 0zm23 -36l0 -1 -4 0 0 1 4 0zm-6 0l0 -1 -6 0 0 1 6 0zm6 -13l0 -1 -8 0 0 1 8 0zm-10 0l0 -1 -6 0 0 1 6 0zm-9 0l0 -1 -45 0 0 0 -2 0 0 0 -2 0 0 0 -2 0 0 0 -28 0 0 0 -3 0 0 0 -6 0 0 0 -2 0 0 0 -46 0 0 1 136 0zm-139 0l0 -1 -2 0 0 1 2 0zm-4 0l0 -1 -43 0 0 1 43 0zm-43 2l0 2 9 0 0 -2 3 0 0 2 8 0 0 -2 3 0 0 2 16 0 0 -1 2 0 0 1 6 0 0 -1 3 0 0 1 7 0 0 -2 -57 0zm0 3l0 2 57 0 0 -2 -7 0 0 1 -3 0 0 -1 -6 0 0 1 -2 0 0 -1 -16 0 0 1 -3 0 0 -1 -8 0 0 1 -3 0 0 -1 -9 0zm0 3l0 2 9 0 0 -2 -9 0zm0 4l0 1 43 0 0 -1 2 0 0 1 2 0 0 -1 3 0 0 1 7 0 0 -1 -39 0 0 0 -3 0 0 0 -3 0 0 0 -3 0 0 0 -9 0zm0 3l0 2 3 0 0 -2 -3 0zm0 4l0 2 9 0 0 -1 3 0 0 1 3 0 0 -1 3 0 0 1 21 0 0 0 2 0 0 0 2 0 0 0 2 0 0 0 2 0 0 0 3 0 0 0 2 0 0 0 2 0 0 0 3 0 0 -2 -3 0 0 0 -2 0 0 0 -11 0 0 0 -2 0 0 0 -39 0zm0 5l0 4 3 0 0 -2 3 0 0 2 3 0 0 -2 3 0 0 2 8 0 0 -2 3 0 0 2 16 0 0 -2 2 0 0 2 2 0 0 -2 2 0 0 2 2 0 0 -2 3 0 0 2 7 0 0 -4 -57 0zm0 6l0 4 3 0 0 -1 3 0 0 1 9 0 0 -1 3 0 0 1 39 0 0 -4 -3 0 0 3 -2 0 0 -3 -2 0 0 3 -3 0 0 -3 -6 0 0 3 -2 0 0 -3 -39 0zm0 7l0 3 9 0 0 -1 3 0 0 1 3 0 0 -1 3 0 0 1 2 0 0 -1 3 0 0 1 20 0 0 -1 2 0 0 1 2 0 0 -1 3 0 0 1 7 0 0 -3 -3 0 0 0 -2 0 0 0 -2 0 0 0 -3 0 0 0 -2 0 0 0 -2 0 0 0 -2 0 0 0 -2 0 0 0 -39 0zm0 6l0 3 3 0 0 -1 3 0 0 1 3 0 0 -1 3 0 0 1 3 0 0 -1 3 0 0 1 9 0 0 -1 30 0 0 -2 -57 0zm0 6l0 3 9 0 0 -1 3 0 0 1 3 0 0 -1 3 0 0 1 2 0 0 -1 3 0 0 1 4 0 0 -3 -27 0zm0 7l0 1 3 0 0 0 3 0 0 0 3 0 0 0 3 0 0 0 3 0 0 0 3 0 0 0 2 0 0 0 3 0 0 0 4 0 0 -1 -27 0zm0 7l0 2 3 0 0 -2 -3 0zm27 2l0 -2 -4 0 0 2 4 0zm-7 0l0 -2 -8 0 0 2 8 0zm-11 0l0 -2 -3 0 0 2 3 0zm48 -48l0 -2 -34 0 0 2 16 0 0 0 2 0 0 0 11 0 0 0 2 0 0 0 3 0zm-37 0l0 -2 -2 0 0 2 2 0zm-5 0l0 -2 -9 0 0 2 9 0zm42 -7l0 -2 -3 0 0 2 3 0zm-5 0l0 -2 -7 0 0 2 7 0zm-9 0l0 -2 -2 0 0 2 2 0zm-4 0l0 -2 -21 0 0 2 21 0zm-24 0l0 -2 -3 0 0 2 3 0zm190 -13l0 -2 -151 0 0 2 -2 0 0 -2 -7 0 0 2 -2 0 0 -2 -2 0 0 2 -2 0 0 -2 -39 0 0 2 96 0 0 -1 2 0 0 1 6 0 0 -1 3 0 0 1 28 0 0 0 2 0 0 0 2 0 0 0 2 0 0 0 64 0zm0 -3l0 -2 -98 0 0 2 19 0 0 -2 2 0 0 2 2 0 0 -2 3 0 0 2 2 0 0 -2 2 0 0 2 68 0zm-101 0l0 -2 -2 0 0 2 2 0zm-4 0l0 -2 -6 0 0 2 6 0zm-8 0l0 -2 -92 0 0 2 39 0 0 0 2 0 0 0 2 0 0 0 2 0 0 0 7 0 0 0 2 0 0 0 38 0zm113 -3l0 -2 -205 0 0 2 205 0zm0 -3l0 -2 -205 0 0 2 205 0zm0 -3l0 -1 8 -1 -221 0 8 1 0 1 205 0zm16 -3l16 -3 -269 0 16 3 237 0zm24 -4l16 -2 -317 0 16 2 285 0zm-85 62l2 0 0 -3 -2 0 0 3zm-4 0l2 0 0 -3 -2 0 0 3zm-5 0l3 0 0 -3 -3 0 0 3zm44 6l2 0 0 -3 -2 0 0 3zm-4 0l2 0 0 -3 -2 0 0 3zm-52 -94l2 0 0 3 -2 0 0 -3zm0 -4l2 0 0 3 -2 0 0 -3zm0 -9l2 0 0 3 -2 0 0 -3zm0 -5l2 0 0 3 -2 0 0 -3zm0 -4l2 0 0 3 -2 0 0 -3zm-4 27l2 0 0 3 -2 0 0 -3zm0 -5l2 0 0 3 -2 0 0 -3zm0 -9l2 0 0 3 -2 0 0 -3zm0 -4l2 0 0 3 -2 0 0 -3zm0 -9l2 0 0 3 -2 0 0 -3zm0 -5l2 0 0 3 -2 0 0 -3zm-5 32l3 0 0 3 -3 0 0 -3zm0 -9l3 0 0 3 -3 0 0 -3zm0 -5l3 0 0 3 -3 0 0 -3zm0 -9l3 0 0 3 -3 0 0 -3zm0 -4l3 0 0 3 -3 0 0 -3zm0 -5l3 0 0 3 -3 0 0 -3zm-4 32l2 0 0 3 -2 0 0 -3zm0 -14l2 0 0 3 -2 0 0 -3zm0 -4l2 0 0 3 -2 0 0 -3zm0 -5l2 0 0 3 -2 0 0 -3zm0 -9l2 0 0 3 -2 0 0 -3zm13 -4l2 0 0 2 -2 0 0 -2zm-4 0l2 0 0 2 -2 0 0 -2zm-5 0l3 0 0 2 -3 0 0 -2zm-26 36l3 0 0 3 -3 0 0 -3zm0 -4l3 0 0 2 -3 0 0 -2zm0 -5l3 0 0 3 -3 0 0 -3zm0 -4l3 0 0 2 -3 0 0 -2zm0 -5l3 0 0 3 -3 0 0 -3zm0 -4l3 0 0 2 -3 0 0 -2zm0 -9l3 0 0 2 -3 0 0 -2zm-4 31l2 0 0 3 -2 0 0 -3zm0 -9l2 0 0 3 -2 0 0 -3zm0 -4l2 0 0 2 -2 0 0 -2zm0 -9l2 0 0 2 -2 0 0 -2zm0 -5l2 0 0 3 -2 0 0 -3zm0 -9l2 0 0 3 -2 0 0 -3zm-4 32l2 0 0 2 -2 0 0 -2zm0 -9l2 0 0 2 -2 0 0 -2zm0 -5l2 0 0 3 -2 0 0 -3zm0 -9l2 0 0 3 -2 0 0 -3zm0 -4l2 0 0 2 -2 0 0 -2zm0 -5l2 0 0 3 -2 0 0 -3zm-4 36l2 0 0 3 -2 0 0 -3zm0 -9l2 0 0 3 -2 0 0 -3zm0 -9l2 0 0 3 -2 0 0 -3zm0 -9l2 0 0 3 -2 0 0 -3zm0 -4l2 0 0 2 -2 0 0 -2zm12 -10l3 0 0 3 -3 0 0 -3zm-4 0l2 0 0 3 -2 0 0 -3zm-8 0l2 0 0 3 -2 0 0 -3zm-40 39l2 0 0 3 -2 0 0 -3zm0 -14l2 0 0 3 -2 0 0 -3zm0 -9l2 0 0 3 -2 0 0 -3zm0 -4l2 0 0 3 -2 0 0 -3zm0 -9l2 0 0 3 -2 0 0 -3zm0 -5l2 0 0 3 -2 0 0 -3zm-5 37l3 0 0 2 -3 0 0 -2zm0 -5l3 0 0 3 -3 0 0 -3zm0 -9l3 0 0 3 -3 0 0 -3zm0 -9l3 0 0 3 -3 0 0 -3zm0 -5l3 0 0 3 -3 0 0 -3zm0 -4l3 0 0 3 -3 0 0 -3zm0 -5l3 0 0 3 -3 0 0 -3zm-4 41l2 0 0 3 -2 0 0 -3zm0 -4l2 0 0 2 -2 0 0 -2zm0 -10l2 0 0 3 -2 0 0 -3zm0 -4l2 0 0 3 -2 0 0 -3zm0 -9l2 0 0 3 -2 0 0 -3zm0 -5l2 0 0 3 -2 0 0 -3zm0 -9l2 0 0 3 -2 0 0 -3zm-4 41l2 0 0 3 -2 0 0 -3zm0 -9l2 0 0 3 -2 0 0 -3zm0 -5l2 0 0 3 -2 0 0 -3zm0 -9l2 0 0 3 -2 0 0 -3zm0 -4l2 0 0 3 -2 0 0 -3zm0 -5l2 0 0 3 -2 0 0 -3zm0 -4l2 0 0 3 -2 0 0 -3zm0 -5l2 0 0 3 -2 0 0 -3zm8 -4l3 0 0 3 -3 0 0 -3zm-4 0l2 0 0 3 -2 0 0 -3zm121 29l2 0 0 3 -2 0 0 -3zm0 -4l2 0 0 2 -2 0 0 -2zm0 -5l2 0 0 3 -2 0 0 -3zm0 -9l2 0 0 3 -2 0 0 -3zm0 -14l2 0 0 3 -2 0 0 -3zm0 -4l2 0 0 3 -2 0 0 -3zm-4 36l2 0 0 3 -2 0 0 -3zm0 -13l2 0 0 2 -2 0 0 -2zm0 -10l2 0 0 3 -2 0 0 -3zm0 -4l2 0 0 3 -2 0 0 -3zm0 -9l2 0 0 3 -2 0 0 -3zm0 -5l2 0 0 3 -2 0 0 -3zm-4 41l2 0 0 3 -2 0 0 -3zm0 -9l2 0 0 3 -2 0 0 -3zm0 -9l2 0 0 3 -2 0 0 -3zm0 -5l2 0 0 3 -2 0 0 -3zm0 -4l2 0 0 3 -2 0 0 -3zm0 -9l2 0 0 3 -2 0 0 -3zm0 -5l2 0 0 3 -2 0 0 -3zm-5 32l3 0 0 3 -3 0 0 -3zm0 -9l3 0 0 3 -3 0 0 -3zm0 -9l3 0 0 3 -3 0 0 -3zm0 -5l3 0 0 3 -3 0 0 -3zm0 -9l3 0 0 3 -3 0 0 -3zm13 -4l2 0 0 3 -2 0 0 -3zm-8 0l2 0 0 3 -2 0 0 -3zm43 52l2 0 0 3 -2 0 0 -3zm0 -9l2 0 0 3 -2 0 0 -3zm0 -4l2 0 0 2 -2 0 0 -2zm0 -9l2 0 0 2 -2 0 0 -2zm0 -9l2 0 0 2 -2 0 0 -2zm0 -5l2 0 0 3 -2 0 0 -3zm-4 41l2 0 0 3 -2 0 0 -3zm0 -9l2 0 0 3 -2 0 0 -3zm0 -14l2 0 0 3 -2 0 0 -3zm0 -9l2 0 0 3 -2 0 0 -3zm0 -4l2 0 0 2 -2 0 0 -2zm-4 31l2 0 0 3 -2 0 0 -3zm0 -9l2 0 0 3 -2 0 0 -3zm0 -9l2 0 0 3 -2 0 0 -3zm0 -4l2 0 0 2 -2 0 0 -2zm0 -5l2 0 0 3 -2 0 0 -3zm0 -9l2 0 0 3 -2 0 0 -3zm-5 41l3 0 0 3 -3 0 0 -3zm0 -23l3 0 0 3 -3 0 0 -3zm0 -13l3 0 0 2 -3 0 0 -2zm0 -5l3 0 0 3 -3 0 0 -3zm9 -4l2 0 0 2 -2 0 0 -2zm-4 0l2 0 0 2 -2 0 0 -2zm-58 2l2 0 0 3 -2 0 0 -3zm0 -4l2 0 0 2 -2 0 0 -2zm0 -10l2 0 0 3 -2 0 0 -3zm0 -4l2 0 0 3 -2 0 0 -3zm0 -9l2 0 0 3 -2 0 0 -3zm0 -5l2 0 0 3 -2 0 0 -3zm0 -4l2 0 0 3 -2 0 0 -3zm-4 32l2 0 0 2 -2 0 0 -2zm0 -5l2 0 0 3 -2 0 0 -3zm0 -5l2 0 0 3 -2 0 0 -3zm0 -9l2 0 0 3 -2 0 0 -3zm0 -4l2 0 0 3 -2 0 0 -3zm0 -9l2 0 0 3 -2 0 0 -3zm0 -5l2 0 0 3 -2 0 0 -3zm-4 41l2 0 0 3 -2 0 0 -3zm0 -9l2 0 0 3 -2 0 0 -3zm0 -5l2 0 0 3 -2 0 0 -3zm0 -4l2 0 0 3 -2 0 0 -3zm0 -9l2 0 0 3 -2 0 0 -3zm0 -5l2 0 0 3 -2 0 0 -3zm0 -4l2 0 0 3 -2 0 0 -3zm-5 32l3 0 0 2 -3 0 0 -2zm0 -5l3 0 0 3 -3 0 0 -3zm0 -9l3 0 0 3 -3 0 0 -3zm0 -5l3 0 0 3 -3 0 0 -3zm0 -4l3 0 0 3 -3 0 0 -3zm9 -18l2 0 0 2 -2 0 0 -2zm-9 0l3 0 0 2 -3 0 0 -2zm-100 83l3 0 0 4 -3 0 0 -4zm0 -12l3 0 0 4 -3 0 0 -4zm0 -12l3 0 0 3 -3 0 0 -3zm0 -13l3 0 0 4 -3 0 0 -4zm0 -12l3 0 0 4 -3 0 0 -4zm0 -6l3 0 0 4 -3 0 0 -4zm-5 49l3 0 0 4 -3 0 0 -4zm0 -6l3 0 0 4 -3 0 0 -4zm0 -6l3 0 0 3 -3 0 0 -3zm0 -12l3 0 0 3 -3 0 0 -3zm0 -7l3 0 0 4 -3 0 0 -4zm0 -6l3 0 0 4 -3 0 0 -4zm0 -6l3 0 0 4 -3 0 0 -4zm0 -6l3 0 0 4 -3 0 0 -4zm-6 55l3 0 0 4 -3 0 0 -4zm0 -6l3 0 0 4 -3 0 0 -4zm0 -12l3 0 0 3 -3 0 0 -3zm0 -6l3 0 0 3 -3 0 0 -3zm0 -13l3 0 0 4 -3 0 0 -4zm0 -6l3 0 0 4 -3 0 0 -4zm0 -6l3 0 0 4 -3 0 0 -4zm0 -6l3 0 0 4 -3 0 0 -4zm-6 43l3 0 0 4 -3 0 0 -4zm0 -12l3 0 0 3 -3 0 0 -3zm0 -6l3 0 0 3 -3 0 0 -3zm0 -13l3 0 0 4 -3 0 0 -4zm0 -12l3 0 0 4 -3 0 0 -4zm17 -6l3 0 0 4 -3 0 0 -4zm-11 0l3 0 0 4 -3 0 0 -4zm-6 0l3 0 0 4 -3 0 0 -4z"/></g></svg></svg> <defs> </defs></g></g> <g transform="translate(11.610000610351562,70.67079162597656)" fill="black" stroke="black" stroke-width="6" stroke-linejoin="round"><g fill-rule="" class="tp-name" transform="translate(0,0)"><g transform="scale(1)"><g><path d="M-118.30054682858253 5.260000000000007q7.183129805772394-14.61 14.366259611544788-29.229999999999997 2.309214096246933-1.4389599889981365e-16 4.61842819249388-2.877919977996282e-16-6.082568193944074 12.95-12.155309944925378 25.89 5.97447732135378-2.148649466341046e-15 11.958781085670317-2.521554416681415e-15 5.424196515439613-12.94 10.848393030879226-25.89 2.309214096246947-1.4389599889981453e-16 4.608601749531122-2.871796744000542e-16-5.296452756923829 13.339999999999998-10.592905513847644 26.66-0.4127106044356247 1.049999999999999-1.4543135584874376 1.8099999999999987-1.0514293970145707 0.7599999999999999-2.0930323510663835 0.7599999999999999 0 0 0 0-10.042624707933493-0.00999999999999916-20.10490230179249-0.009999999999998534 0.01965288592550195-1.2246467991471096e-18 0.01965288592550195-1.2246467991471096e-18m27.022718147570558 0.009999999999998102q3.3901228221497632-8.94 6.7802456442995265-17.89 2.4271314117999725-1.5124387969469805e-16 4.854262823599945-3.024877593893961e-16-0.4913221481376464 1.3800000000000008-0.9826442962752928 2.7700000000000014 1.7294539614445208-1.0200000000000014 3.4589079228890274-2.030000000000001 2.604007385129532-1.6226570088702464e-16 5.217841213221808-3.2514372517362243e-16-1.021950068126297 1.67-2.0537265792153656 3.34-1.650842417742485 1.0287033112837722e-16-3.311511278447728 2.0635298565632842e-16-2.377999196986211 1.4000000000000006-4.785477722860682 2.7900000000000014-1.9652885925505856 5.52-3.9305771851011713 11.02-2.623660271055034 1.6349034768617175e-16-5.247320542110068 3.269806953723435e-16 0 0 0 0m17.884126192210335-1.1144285872240917e-15q4.451378662127078-14.6 8.902757324254155-29.22 2.30921409624694-1.438959988998141e-16 4.608601749531122-2.871796744000542e-16-1.6017102029287227 5.670000000000002-3.2034204058574596 11.33 7.79236926946308-4.85572455861926e-16 15.574912095963404-9.70532588324278e-16-1.6311895318169896 7.670000000000001-3.2722055065967233 15.330000000000002-0.2161817451805703 1.0399999999999991-1.1103880547910836 1.799999999999999-0.9040327525732713 0.7599999999999999-1.965288592550586 0.7599999999999999 0 0 0 0-9.767484304976417 6.086494591762348e-16-19.534968609952827 1.2172989183524692e-15 0 0 0 0m6.1906590665343435-3.3400000000000003q5.699336918396704-3.551475717527327e-16 11.41832672271891-7.115197903046125e-16 1.3167433570088956-5.6 2.633486714017784-11.22-5.443849401365123 3.392271633638168e-16-10.877872359767494 6.7784200332806e-16-1.5918837599659788 5.620000000000001-3.1739410769691996 11.22 0 0 0 0m19.957505657351202 3.3399999999999985q1.0710822829400723-5.4799999999999995 2.1519910088428955-10.98 8.028203900569139 3.8791020224843175e-16 16.056407801138285-1.1235801520326212e-16 0.23583463110607217-1.79 0.46184281924938986-3.580000000000001-7.9102865850161095 4.929203366568097e-16-15.810746727069464 9.852283499140457e-16 0.32427261777084493-1.6600000000000001 0.6485452355416899-3.33 10.219500681263046-6.368163355566235e-16 20.439001362526096-1.2736326711132475e-15-0.7959418799829857 7.670000000000001-1.6017102029287258 15.330000000000002-0.1080908725902816 1.0399999999999991-0.9236856384987766 1.799999999999999-0.835247651833997 0.7599999999999998-1.886677048848561 0.7599999999999999 0 0 0 0-9.76748430497641 6.086494591762344e-16-19.534968609952827 1.2172989183524692e-15 0 0 0 0m5.827080676912487-3.3400000000000003q5.709163361359455-3.5575989515230627e-16 11.418326722718906-7.115197903046122e-16 0.2751404029570831-2.14 0.5502808059141662-4.3-5.620725374694678 3.502489845561432e-16-11.221797863463845 6.992733223131386e-16-0.37340483258461377 2.1599999999999997-0.7468096651692275 4.3 0 0 0 0m20.311257604010308 3.3399999999999985q0.7861154370202346-8.94 1.5722308740404691-17.89 10.19984779533754-6.355916887574763e-16 20.39969559067508-1.2711833775149525e-15 0.0393057718510136 8.950000000000001 0.06878510073927296 17.89-2.6236602710550323 1.6349034768617165e-16-5.247320542110065 3.269806953723433e-16 0.13757020147854027-7.26 0.2653139599943287-14.56-5.404543629514111 3.3677786976552215e-16-10.818913701990976 6.741680629306179e-16-0.4814957051748934 7.300000000000001-0.9531649673870323 14.56-2.6433131569805397 1.6471499448531907e-16-5.286626313961079 3.2942998897063815e-16 0 0 0 0m26.108858952034538-1.6269432726672588e-15q-0.30461973184534136-14.6-0.6092394636906827-29.22 10.553599741996647-6.576353311421287e-16 21.1268523699188-1.3164953090834046e-15 0.8647269807222573 7.18 1.7294539614445146 14.360000000000001 0.12774375851578718 1.0899999999999999-0.48149570517489193 1.8199999999999994-0.6288923496161881 0.7400000000000002-1.6213630888542356 0.7400000000000003 0 0 0 0-7.713757725761048 4.80673868665336e-16-15.4275154515221 9.613477373306721e-16 0.2653139599943291 6.16 0.5306279199886582 12.3-2.6236602710550314-7.246880720139536e-16-5.247320542110064-5.61197724327782e-16 0 0 0 0m4.579122420642864-15.629999999999999q6.328229268012889-3.943362693254478e-16 12.676111421951282-7.89897185450043e-16-0.5109750340631558-5.120000000000001-1.021950068126308-10.250000000000002-6.053088865055804 3.771912141373847e-16-12.096351287148856 7.537701048751958e-16 0.2260081881433181 5.130000000000001 0.4421899333238818 10.250000000000002 0 0 0 0m23.534330895793268 15.629999999999997q-1.2381318133068677-8.94-2.4664371836509846-17.89 2.4369578547627238-1.518562030942716e-16 4.893568595450956-3.0493705298769074e-16 1.1595202696048459 7.280000000000001 2.3190405392096918 14.55 5.679684032471195-3.5392292495358516e-16 11.35936806494239-7.078458499071703e-16-1.513272216263951-7.27-3.026544432527902-14.55 2.4271314117999725-1.5124387969469805e-16 4.864089266562696-3.031000827889697e-16 1.7589332903327812 7.670000000000001 3.5178665806655554 15.330000000000002 0.23583463110606537 1.0399999999999991-0.3242726177708519 1.799999999999999-0.5895865777651702 0.7599999999999998-1.6311895318169831 0.7599999999999999 0 0 0 0-9.75765786201366 6.080371357766608e-16-19.50548928106457 1.2154619481537482e-15 0 0 0 0m26.108858952034538-1.6269432726672588e-15q-3.59647812436757-14.62-7.202782691697898-29.25 2.328866982172442 3.4075930331015396e-15 4.647907521382133 3.263084710802152e-15 3.9207507421384222 14.629999999999999 7.831675041314086 29.25-2.633486714017785-1.6122541683145052e-15-5.276799870998321-1.4475391738291863e-15 0 0 0 0m9.344947257578035-5.823195529945663e-16q-0.47166926221214467-1.67-0.9433385244242753-3.34 8.283691417600712-5.16188625840609e-16 16.58703572112694-1.0336018984803659e-15-0.70750389331821-1.99-1.41500778663642-4-6.927642288740813 4.3168799669944185e-16-13.855284577481626 8.633759933988837e-16-1.021950068126311 6.368163355566276e-17-1.9554621495878421-0.7399999999999997-0.9236856384987733-0.7400000000000001-1.2283053703441162-1.7900000000000005 0 0 0 0-0.7762889940574739-2.7299999999999995-1.5525779881149617-5.46-0.29479328888258516-1.049999999999999 0.17687597332955934-1.799999999999999 0.47166926221213057-0.7600000000000016 1.4444871155246797-0.7600000000000017 0 0 0 0 9.433385244242807-5.878304635907292e-16 18.866770488485614-1.1756609271814584e-15 0.14739664444129966 1.67 0.28496684591984134 3.33-7.812022155388583 4.86797102661073e-16-15.624044310777165 9.73594205322146e-16 0.5895865777651843 1.9400000000000004 1.1889995984931125 3.880000000000001 6.8195514161505315-4.2495243930413144e-16 13.658755718226566-8.5112952540740995e-16 1.012123625163553-6.306931015608876e-17 2.004594364401604 0.7599999999999997 1.002297182200795 0.7600000000000001 1.38552845774816 1.8000000000000003 0 0 0 0 1.051429397014571 2.79 2.093032351066384 5.5600000000000005 0.3930577185101089 1.0399999999999996-0.05895865777651971 1.7999999999999994-0.4618428192493866 0.7599999999999998-1.5132722162639574 0.7599999999999999 0 0 0 0-9.777310747939168 6.092617825758084e-16-19.54479505291558 1.2179112417520428e-15 0 0 0 0m29.53828754603531-1.840644139118472e-15q-1.051429397014557 6.551860375438298e-17-2.1028587940291277-0.7599999999999997-1.0416029540518128-0.7599999999999997-1.4543135584874376-1.7999999999999998 0 0 0 0-3.036370875490645-7.66-6.082568193944063-15.330000000000002 10.219500681263053 1.1395405038436264e-15 20.439001362526092 5.027241682870034e-16 2.0340736932898644 4.16 4.068147386579715 8.330000000000002 0.5109750340631626 1.0399999999999991 0.1670495303668016 1.8099999999999987-0.35375194665910487 0.7500000000000002-1.38552845774816 0.7500000000000003 0 0 0 0-6.9374687317035715 4.3230032009901583e-16-13.874937463407143 8.646006401980317e-16 0.7566361081319858 1.82 1.5329251021894597 3.66 8.617790478334316-7.5905222635114545e-16 17.235580956668645-1.2960598477772604e-15 0.2849668459198273 1.67 0.5601072488769105 3.34-9.561129002758605 5.957906677851876e-16-19.102605119591693 1.1903566887712271e-15 0 0 0 0m-1.6213630888542399-10.34q5.53228738802991-3.4473807395998053e-16 11.084227661985306-6.907007947191073e-16-0.9924707392380373-2.1100000000000003-1.9751150355133305-4.220000000000001-5.44384940136513 3.3922716336381725e-16-10.877872359767501 6.778420033280604e-16 0.8843798666477695 2.1100000000000003 1.768759733295525 4.220000000000001 0 0 0 0" transform="translate(118.30054473876953, 23.989994049072266)"/></g> </g></g> <g fill-rule="" class="tp-slogan" transform="translate(92.21409797668457,36.25)" fill="white"> <g><g><rect stroke-width="2" class="i-icon-bg" x="0" y="0" width="51.101802825927734" height="15.919402122497559" fill-opacity="1"/> </g> <g transform="translate(5,2)"><g transform="scale(1, 1)"><g transform="scale(1.2200000000000002)"><path d="M10.76 0L8.94 0.16L8.60-6.48L6.25-1.62L6.56-0.97L5.06-0.34L2.47-6.05L1.61 0.16L0.40 0L1.02-8.57L0.62-9.36L2.48-9.60L5.60-3L7.96-9.60L10.01-9.36L9.62-8.58L10.76 0ZM22.94-0.01L21.11 0.16L20.47-1.76L16.37-1.76L15.53 0.16L14.28 0L17.74-9.60L19.60-9.14L19.34-8.58L22.94-0.01ZM18.71-7.12L16.84-2.84L20.00-3.19L18.71-7.12ZM28.69 0L27.20 0.17L27.00-8.03L26.41-7.94L26.17-9Q26.84-9.14 28.28-9.31Q29.72-9.48 30.71-9.48L30.71-9.48Q31.64-9.48 32.42-9.11Q33.19-8.74 33.64-8.06Q34.09-7.39 34.09-6.50L34.09-6.50Q34.09-5.38 33.61-4.65Q33.12-3.92 32.34-3.58Q31.56-3.24 30.66-3.24L30.66-3.24Q29.70-3.24 28.69-3.68L28.69-3.68L28.69 0ZM30.40-4.50L30.40-4.50Q30.96-4.50 31.41-4.69Q31.86-4.88 32.14-5.31Q32.41-5.74 32.41-6.43L32.41-6.43Q32.41-7.03 32.13-7.42Q31.85-7.81 31.43-8.01Q31.01-8.21 30.58-8.21L30.58-8.21Q29.70-8.21 28.69-8.16L28.69-8.16L28.69-4.82Q29.62-4.50 30.40-4.50Z" transform="translate(-0.396, 9.6)"/></g></g></g></g></g></g></mask><mask id="a00afa58-d06a-4b7a-9fcb-3d1e009a4d09"><g fill="white"><rect stroke-width="2" class="i-icon-bg" x="0" y="0" width="51.101802825927734" height="15.919402122497559" fill-opacity="1"/> </g> <g transform="translate(5,2)" fill="black"><g transform="scale(1, 1)"><g transform="scale(1.2200000000000002)"><path d="M10.76 0L8.94 0.16L8.60-6.48L6.25-1.62L6.56-0.97L5.06-0.34L2.47-6.05L1.61 0.16L0.40 0L1.02-8.57L0.62-9.36L2.48-9.60L5.60-3L7.96-9.60L10.01-9.36L9.62-8.58L10.76 0ZM22.94-0.01L21.11 0.16L20.47-1.76L16.37-1.76L15.53 0.16L14.28 0L17.74-9.60L19.60-9.14L19.34-8.58L22.94-0.01ZM18.71-7.12L16.84-2.84L20.00-3.19L18.71-7.12ZM28.69 0L27.20 0.17L27.00-8.03L26.41-7.94L26.17-9Q26.84-9.14 28.28-9.31Q29.72-9.48 30.71-9.48L30.71-9.48Q31.64-9.48 32.42-9.11Q33.19-8.74 33.64-8.06Q34.09-7.39 34.09-6.50L34.09-6.50Q34.09-5.38 33.61-4.65Q33.12-3.92 32.34-3.58Q31.56-3.24 30.66-3.24L30.66-3.24Q29.70-3.24 28.69-3.68L28.69-3.68L28.69 0ZM30.40-4.50L30.40-4.50Q30.96-4.50 31.41-4.69Q31.86-4.88 32.14-5.31Q32.41-5.74 32.41-6.43L32.41-6.43Q32.41-7.03 32.13-7.42Q31.85-7.81 31.43-8.01Q31.01-8.21 30.58-8.21L30.58-8.21Q29.70-8.21 28.69-8.16L28.69-8.16L28.69-4.82Q29.62-4.50 30.40-4.50Z" transform="translate(-0.396, 9.6)"/></g></g></g></mask><defs v-gra="od"/><defs v-gra="id"><filter id="5b06fe67-008d-4def-949d-9942e722e819" filterUnits="userSpaceOnUse"><feColorMatrix type="matrix" values="0 0 0 0 0.99609375  0 0 0 0 0.99609375  0 0 0 0 0.99609375  0 0 0 1 0"/></filter><linearGradient x1="0" y1="1" x2="0" y2="0" id="FSBt9ZK68sBpnT1WMUclT"><stop offset="0%" stop-color="#a2869c"/><stop offset="50%" stop-color="#3f5b8d"/><stop offset="100%" stop-color="#bd6c73"/></linearGradient><filter id="42443b3f1de60f6b6fd3b6a9844b4764" filterUnits="objectBoundingBox"><feColorMatrix type="matrix" values="0 0 0 0 0.99609375  0 0 0 0 0.99609375  0 0 0 0 0.99609375  0 0 0 1 0"/></filter></defs><mask v-gra="im" id="977ed2b3-7ca4-4d46-8fcd-0c4da57f2526"><g mask="url(#978703b5-5295-4d75-abf1-84efdd72d6b8)" filter="url(#5b06fe67-008d-4def-949d-9942e722e819)"><g><rect fill="#edeae2" fill-opacity="0" stroke-width="2" x="0" y="0" width="258.7500000000001" height="206.51098199463684" class="image-rect"/> <svg x="0" y="0" width="258.7500000000001" height="206.51098199463684" filtersec="colorsf5455874882" class="image-svg-svg primary" style="overflow: visible;"><svg xmlns="http://www.w3.org/2000/svg" xmlns:xlink="http://www.w3.org/1999/xlink" xml:space="preserve" version="1.1" viewBox="0 0 317 253" x="0px" y="0px" fill-rule="evenodd" clip-rule="evenodd"><defs/><g><path d="M113 105l15 0 0 -13 6 0 0 -16c6,-2 10,-6 13,-11l7 -1 0 -9 -2 0 0 -4 3 0 0 -10 2 0 0 10 3 0 0 4 -2 0 0 7 7 -1 0 44 8 0 0 -94 22 0 0 60 5 0 0 34 3 0 0 -58 10 -7 3 -7 3 0 0 -10 1 0 0 -14 0 0 0 -9 1 0 0 9 1 0 0 14 1 0 0 10 2 0 0 46 11 0 0 20 2 0 0 -44 23 0 0 67 56 7 -317 0 56 -7 0 -87 27 0 0 26 30 0 0 44zm15 51l0 2 37 0 0 -2 -2 0 0 2 -3 0 0 -2 -2 0 0 2 -2 0 0 -2 -6 0 0 2 -2 0 0 -2 -20 0zm0 3l0 2 24 0 0 -2 2 0 0 2 2 0 0 -2 2 0 0 2 2 0 0 -2 3 0 0 2 2 0 0 -2 -37 0zm0 3l0 2 20 0 0 0 2 0 0 0 2 0 0 0 2 0 0 0 6 0 0 0 3 0 0 0 2 0 0 -2 -37 0zm0 4l0 1 6 0 0 0 31 0 0 -1 -2 0 0 1 -3 0 0 -1 -6 0 0 1 -2 0 0 -1 -2 0 0 1 -2 0 0 -1 -20 0zm6 3l0 2 22 0 0 -2 -22 0zm0 4l0 2 14 0 0 -2 -14 0zm0 5l0 4 31 0 0 -4 -2 0 0 2 -3 0 0 -2 -6 0 0 2 -2 0 0 -2 -2 0 0 2 -2 0 0 -2 -14 0zm2 6c2,1 4,3 5,4l7 0 0 -2 2 0 0 2 6 0 0 -2 2 0 0 2 2 0 0 -2 3 0 0 2 2 0 0 -4 -7 0 0 1 -2 0 0 -1 -2 0 0 1 -2 0 0 -1 -16 0zm8 7c1,1 2,2 3,3l18 0 0 -3 -21 0zm10 6l0 3 4 0 0 -3 7 2 0 -2 -11 0zm0 6l0 2 -2 0 0 1 8 0 0 -1 -2 0 0 -2 -4 0zm1 7l0 1 2 0 0 -1 -2 0zm0 7l0 1 2 0 0 -1 -2 0zm10 -42l0 -2 -7 0 0 2 7 0zm-9 0l0 -2 -2 0 0 2 2 0zm-4 0l0 -2 -2 0 0 2 2 0zm13 -4l0 -2 -2 0 0 2 2 0zm-5 0l0 -2 -2 0 0 2 2 0zm13 -15l0 2 13 0 0 -2 -13 0zm0 3l0 2 9 0 0 -1 2 0 0 1 2 0 0 -1 3 0 0 1 2 0 0 -1 2 0 0 1 7 0 0 -2 -27 0zm0 3l0 2 27 0 0 -2 -7 0 0 0 -2 0 0 0 -2 0 0 0 -3 0 0 0 -2 0 0 0 -2 0 0 0 -9 0zm0 4l0 1 27 0 0 -1 -3 0 0 1 -2 0 0 -1 -2 0 0 1 -2 0 0 -1 -7 0 0 1 -2 0 0 -1 -9 0zm0 3l0 2 9 0 0 -2 -9 0zm0 4l0 2 13 0 0 -2 -13 0zm0 5l0 4 27 0 0 -4 -7 0 0 2 -2 0 0 -2 -2 0 0 2 -3 0 0 -2 -2 0 0 2 -2 0 0 -2 -9 0zm0 6l0 4 27 0 0 -4 -3 0 0 1 -2 0 0 -1 -2 0 0 1 -2 0 0 -1 -2 0 0 1 -3 0 0 -1 -13 0zm0 7l0 3 22 0 0 -3 -22 0zm0 6l0 3 3 0 0 -1 3 0 0 1 6 0 0 -1 2 0 0 1 2 0 0 -1 2 0 0 1 4 0 0 -3 -4 0 0 1 -2 0 0 -1 -6 0 0 1 -2 0 0 -1 -8 0zm0 6l0 3 3 0 0 -2 3 0 0 2 2 0 0 -2 2 0 0 2 2 0 0 -2 2 0 0 2 8 0 0 -3 -22 0zm0 7l0 1 22 0 0 -1 -4 0 0 1 -2 0 0 -1 -2 0 0 1 -2 0 0 -1 -2 0 0 1 -2 0 0 -1 -8 0zm0 7l0 2 3 0 0 -1 3 0 0 1 6 0 0 -1 2 0 0 1 8 0 0 -2 -22 0zm0 10l0 2 8 0 0 -2 -8 0zm0 9l0 3 22 0 0 -3 -8 0 0 2 -2 0 0 -2 -12 0zm0 11l0 1 22 0 0 -1 -22 0zm22 -18l0 -2 -4 0 0 2 4 0zm-6 0l0 -2 -6 0 0 2 6 0zm11 -54l0 -2 -3 0 0 2 3 0zm-5 0l0 -2 -2 0 0 2 2 0zm-4 0l0 -2 -2 0 0 2 2 0zm9 -4l0 -2 -3 0 0 2 3 0zm-5 0l0 -2 -6 0 0 2 6 0zm-9 0l0 -2 -2 0 0 2 2 0zm14 -13l0 -2 -3 0 0 2 3 0zm-5 0l0 -2 -6 0 0 2 6 0zm8 -2l0 2 44 0 0 -1 2 0 0 1 6 0 0 -1 2 0 0 1 4 0 0 -2 -58 0zm0 3l0 2 58 0 0 -2 -4 0 0 0 -2 0 0 0 -6 0 0 0 -2 0 0 0 -44 0zm0 3l0 2 9 0 0 0 2 0 0 0 2 0 0 0 2 0 0 0 2 0 0 0 2 0 0 0 14 0 0 -2 -33 0zm0 4l0 1 33 0 0 -1 -14 0 0 1 -2 0 0 -1 -2 0 0 1 -2 0 0 -1 -2 0 0 1 -2 0 0 -1 -9 0zm0 3l0 2 17 0 0 -2 -17 0zm0 4l0 2 4 0 0 -2 -4 0zm0 5l0 4 22 0 0 -1 11 0 0 -3 -18 0 0 2 -2 0 0 -2 -13 0zm0 6l0 4 9 0 0 -2 2 0 0 2 2 0 0 -2 2 0 0 2 7 0 0 -4 -3 0 0 1 -2 0 0 -1 -6 0 0 1 -2 0 0 -1 -2 0 0 1 -3 0 0 -1 -4 0zm0 7l0 3 22 0 0 -3 -22 0zm0 6l0 3 9 0 0 0 2 0 0 0 2 0 0 0 2 0 0 0 2 0 0 0 2 0 0 0 3 0 0 -3 -3 0 0 1 -2 0 0 -1 -10 0 0 1 -3 0 0 -1 -4 0zm0 6l0 3 4 0 0 -1 3 0 0 1 2 0 0 -1 2 0 0 1 2 0 0 -1 2 0 0 1 7 0 0 -3 -22 0zm0 7l0 1 9 0 0 -1 -9 0zm7 7l2 2 13 0 0 -2 -15 0zm9 10l0 2 4 0 0 -2 -4 0zm0 9l0 1 1 0 0 2 2 0 0 -2 1 0 0 -1 -4 0zm1 11l0 4 0 0 0 2 1 0 0 -2 1 0 0 -4 -2 0zm5 -36l0 -1 -3 0 0 1 3 0zm-5 0l0 -1 -6 0 0 1 6 0zm16 -36l0 -2 -14 0 0 2 14 0zm-16 0l0 -2 -6 0 0 2 6 0zm-8 0l0 -2 -2 0 0 2 2 0zm24 -4l0 -2 -14 0 0 2 14 0zm2 -9l0 2 23 0 0 -2 -8 0 0 2 -2 0 0 -2 -13 0zm0 4l0 1 9 0 0 -1 -9 0zm0 3l0 2 17 0 0 -1 2 0 0 1 4 0 0 -2 -23 0zm0 4l0 2 4 0 0 0 3 0 0 0 2 0 0 0 2 0 0 0 2 0 0 0 2 0 0 0 8 0 0 -2 -23 0zm0 5l0 4 9 0 0 -3 2 0 0 3 6 0 0 -3 2 0 0 3 4 0 0 -4 -23 0zm0 6l0 4 23 0 0 -4 -8 0 0 3 -2 0 0 -3 -2 0 0 3 -2 0 0 -3 -9 0zm0 7l0 3 4 0 0 -1 3 0 0 1 2 0 0 -1 2 0 0 1 6 0 0 -1 2 0 0 1 4 0 0 -3 -4 0 0 0 -2 0 0 0 -2 0 0 0 -2 0 0 0 -6 0 0 0 -3 0 0 0 -4 0zm0 6l0 3 23 0 0 -3 -23 0zm0 6l0 1 23 0 0 -1 -23 0zm23 -36l0 -1 -4 0 0 1 4 0zm-6 0l0 -1 -6 0 0 1 6 0zm6 -13l0 -1 -8 0 0 1 8 0zm-10 0l0 -1 -6 0 0 1 6 0zm-9 0l0 -1 -45 0 0 0 -2 0 0 0 -2 0 0 0 -2 0 0 0 -28 0 0 0 -3 0 0 0 -6 0 0 0 -2 0 0 0 -46 0 0 1 136 0zm-139 0l0 -1 -2 0 0 1 2 0zm-4 0l0 -1 -43 0 0 1 43 0zm-43 2l0 2 9 0 0 -2 3 0 0 2 8 0 0 -2 3 0 0 2 16 0 0 -1 2 0 0 1 6 0 0 -1 3 0 0 1 7 0 0 -2 -57 0zm0 3l0 2 57 0 0 -2 -7 0 0 1 -3 0 0 -1 -6 0 0 1 -2 0 0 -1 -16 0 0 1 -3 0 0 -1 -8 0 0 1 -3 0 0 -1 -9 0zm0 3l0 2 9 0 0 -2 -9 0zm0 4l0 1 43 0 0 -1 2 0 0 1 2 0 0 -1 3 0 0 1 7 0 0 -1 -39 0 0 0 -3 0 0 0 -3 0 0 0 -3 0 0 0 -9 0zm0 3l0 2 3 0 0 -2 -3 0zm0 4l0 2 9 0 0 -1 3 0 0 1 3 0 0 -1 3 0 0 1 21 0 0 0 2 0 0 0 2 0 0 0 2 0 0 0 2 0 0 0 3 0 0 0 2 0 0 0 2 0 0 0 3 0 0 -2 -3 0 0 0 -2 0 0 0 -11 0 0 0 -2 0 0 0 -39 0zm0 5l0 4 3 0 0 -2 3 0 0 2 3 0 0 -2 3 0 0 2 8 0 0 -2 3 0 0 2 16 0 0 -2 2 0 0 2 2 0 0 -2 2 0 0 2 2 0 0 -2 3 0 0 2 7 0 0 -4 -57 0zm0 6l0 4 3 0 0 -1 3 0 0 1 9 0 0 -1 3 0 0 1 39 0 0 -4 -3 0 0 3 -2 0 0 -3 -2 0 0 3 -3 0 0 -3 -6 0 0 3 -2 0 0 -3 -39 0zm0 7l0 3 9 0 0 -1 3 0 0 1 3 0 0 -1 3 0 0 1 2 0 0 -1 3 0 0 1 20 0 0 -1 2 0 0 1 2 0 0 -1 3 0 0 1 7 0 0 -3 -3 0 0 0 -2 0 0 0 -2 0 0 0 -3 0 0 0 -2 0 0 0 -2 0 0 0 -2 0 0 0 -2 0 0 0 -39 0zm0 6l0 3 3 0 0 -1 3 0 0 1 3 0 0 -1 3 0 0 1 3 0 0 -1 3 0 0 1 9 0 0 -1 30 0 0 -2 -57 0zm0 6l0 3 9 0 0 -1 3 0 0 1 3 0 0 -1 3 0 0 1 2 0 0 -1 3 0 0 1 4 0 0 -3 -27 0zm0 7l0 1 3 0 0 0 3 0 0 0 3 0 0 0 3 0 0 0 3 0 0 0 3 0 0 0 2 0 0 0 3 0 0 0 4 0 0 -1 -27 0zm0 7l0 2 3 0 0 -2 -3 0zm27 2l0 -2 -4 0 0 2 4 0zm-7 0l0 -2 -8 0 0 2 8 0zm-11 0l0 -2 -3 0 0 2 3 0zm48 -48l0 -2 -34 0 0 2 16 0 0 0 2 0 0 0 11 0 0 0 2 0 0 0 3 0zm-37 0l0 -2 -2 0 0 2 2 0zm-5 0l0 -2 -9 0 0 2 9 0zm42 -7l0 -2 -3 0 0 2 3 0zm-5 0l0 -2 -7 0 0 2 7 0zm-9 0l0 -2 -2 0 0 2 2 0zm-4 0l0 -2 -21 0 0 2 21 0zm-24 0l0 -2 -3 0 0 2 3 0zm190 -13l0 -2 -151 0 0 2 -2 0 0 -2 -7 0 0 2 -2 0 0 -2 -2 0 0 2 -2 0 0 -2 -39 0 0 2 96 0 0 -1 2 0 0 1 6 0 0 -1 3 0 0 1 28 0 0 0 2 0 0 0 2 0 0 0 2 0 0 0 64 0zm0 -3l0 -2 -98 0 0 2 19 0 0 -2 2 0 0 2 2 0 0 -2 3 0 0 2 2 0 0 -2 2 0 0 2 68 0zm-101 0l0 -2 -2 0 0 2 2 0zm-4 0l0 -2 -6 0 0 2 6 0zm-8 0l0 -2 -92 0 0 2 39 0 0 0 2 0 0 0 2 0 0 0 2 0 0 0 7 0 0 0 2 0 0 0 38 0zm113 -3l0 -2 -205 0 0 2 205 0zm0 -3l0 -2 -205 0 0 2 205 0zm0 -3l0 -1 8 -1 -221 0 8 1 0 1 205 0zm16 -3l16 -3 -269 0 16 3 237 0zm24 -4l16 -2 -317 0 16 2 285 0zm-85 62l2 0 0 -3 -2 0 0 3zm-4 0l2 0 0 -3 -2 0 0 3zm-5 0l3 0 0 -3 -3 0 0 3zm44 6l2 0 0 -3 -2 0 0 3zm-4 0l2 0 0 -3 -2 0 0 3zm-52 -94l2 0 0 3 -2 0 0 -3zm0 -4l2 0 0 3 -2 0 0 -3zm0 -9l2 0 0 3 -2 0 0 -3zm0 -5l2 0 0 3 -2 0 0 -3zm0 -4l2 0 0 3 -2 0 0 -3zm-4 27l2 0 0 3 -2 0 0 -3zm0 -5l2 0 0 3 -2 0 0 -3zm0 -9l2 0 0 3 -2 0 0 -3zm0 -4l2 0 0 3 -2 0 0 -3zm0 -9l2 0 0 3 -2 0 0 -3zm0 -5l2 0 0 3 -2 0 0 -3zm-5 32l3 0 0 3 -3 0 0 -3zm0 -9l3 0 0 3 -3 0 0 -3zm0 -5l3 0 0 3 -3 0 0 -3zm0 -9l3 0 0 3 -3 0 0 -3zm0 -4l3 0 0 3 -3 0 0 -3zm0 -5l3 0 0 3 -3 0 0 -3zm-4 32l2 0 0 3 -2 0 0 -3zm0 -14l2 0 0 3 -2 0 0 -3zm0 -4l2 0 0 3 -2 0 0 -3zm0 -5l2 0 0 3 -2 0 0 -3zm0 -9l2 0 0 3 -2 0 0 -3zm13 -4l2 0 0 2 -2 0 0 -2zm-4 0l2 0 0 2 -2 0 0 -2zm-5 0l3 0 0 2 -3 0 0 -2zm-26 36l3 0 0 3 -3 0 0 -3zm0 -4l3 0 0 2 -3 0 0 -2zm0 -5l3 0 0 3 -3 0 0 -3zm0 -4l3 0 0 2 -3 0 0 -2zm0 -5l3 0 0 3 -3 0 0 -3zm0 -4l3 0 0 2 -3 0 0 -2zm0 -9l3 0 0 2 -3 0 0 -2zm-4 31l2 0 0 3 -2 0 0 -3zm0 -9l2 0 0 3 -2 0 0 -3zm0 -4l2 0 0 2 -2 0 0 -2zm0 -9l2 0 0 2 -2 0 0 -2zm0 -5l2 0 0 3 -2 0 0 -3zm0 -9l2 0 0 3 -2 0 0 -3zm-4 32l2 0 0 2 -2 0 0 -2zm0 -9l2 0 0 2 -2 0 0 -2zm0 -5l2 0 0 3 -2 0 0 -3zm0 -9l2 0 0 3 -2 0 0 -3zm0 -4l2 0 0 2 -2 0 0 -2zm0 -5l2 0 0 3 -2 0 0 -3zm-4 36l2 0 0 3 -2 0 0 -3zm0 -9l2 0 0 3 -2 0 0 -3zm0 -9l2 0 0 3 -2 0 0 -3zm0 -9l2 0 0 3 -2 0 0 -3zm0 -4l2 0 0 2 -2 0 0 -2zm12 -10l3 0 0 3 -3 0 0 -3zm-4 0l2 0 0 3 -2 0 0 -3zm-8 0l2 0 0 3 -2 0 0 -3zm-40 39l2 0 0 3 -2 0 0 -3zm0 -14l2 0 0 3 -2 0 0 -3zm0 -9l2 0 0 3 -2 0 0 -3zm0 -4l2 0 0 3 -2 0 0 -3zm0 -9l2 0 0 3 -2 0 0 -3zm0 -5l2 0 0 3 -2 0 0 -3zm-5 37l3 0 0 2 -3 0 0 -2zm0 -5l3 0 0 3 -3 0 0 -3zm0 -9l3 0 0 3 -3 0 0 -3zm0 -9l3 0 0 3 -3 0 0 -3zm0 -5l3 0 0 3 -3 0 0 -3zm0 -4l3 0 0 3 -3 0 0 -3zm0 -5l3 0 0 3 -3 0 0 -3zm-4 41l2 0 0 3 -2 0 0 -3zm0 -4l2 0 0 2 -2 0 0 -2zm0 -10l2 0 0 3 -2 0 0 -3zm0 -4l2 0 0 3 -2 0 0 -3zm0 -9l2 0 0 3 -2 0 0 -3zm0 -5l2 0 0 3 -2 0 0 -3zm0 -9l2 0 0 3 -2 0 0 -3zm-4 41l2 0 0 3 -2 0 0 -3zm0 -9l2 0 0 3 -2 0 0 -3zm0 -5l2 0 0 3 -2 0 0 -3zm0 -9l2 0 0 3 -2 0 0 -3zm0 -4l2 0 0 3 -2 0 0 -3zm0 -5l2 0 0 3 -2 0 0 -3zm0 -4l2 0 0 3 -2 0 0 -3zm0 -5l2 0 0 3 -2 0 0 -3zm8 -4l3 0 0 3 -3 0 0 -3zm-4 0l2 0 0 3 -2 0 0 -3zm121 29l2 0 0 3 -2 0 0 -3zm0 -4l2 0 0 2 -2 0 0 -2zm0 -5l2 0 0 3 -2 0 0 -3zm0 -9l2 0 0 3 -2 0 0 -3zm0 -14l2 0 0 3 -2 0 0 -3zm0 -4l2 0 0 3 -2 0 0 -3zm-4 36l2 0 0 3 -2 0 0 -3zm0 -13l2 0 0 2 -2 0 0 -2zm0 -10l2 0 0 3 -2 0 0 -3zm0 -4l2 0 0 3 -2 0 0 -3zm0 -9l2 0 0 3 -2 0 0 -3zm0 -5l2 0 0 3 -2 0 0 -3zm-4 41l2 0 0 3 -2 0 0 -3zm0 -9l2 0 0 3 -2 0 0 -3zm0 -9l2 0 0 3 -2 0 0 -3zm0 -5l2 0 0 3 -2 0 0 -3zm0 -4l2 0 0 3 -2 0 0 -3zm0 -9l2 0 0 3 -2 0 0 -3zm0 -5l2 0 0 3 -2 0 0 -3zm-5 32l3 0 0 3 -3 0 0 -3zm0 -9l3 0 0 3 -3 0 0 -3zm0 -9l3 0 0 3 -3 0 0 -3zm0 -5l3 0 0 3 -3 0 0 -3zm0 -9l3 0 0 3 -3 0 0 -3zm13 -4l2 0 0 3 -2 0 0 -3zm-8 0l2 0 0 3 -2 0 0 -3zm43 52l2 0 0 3 -2 0 0 -3zm0 -9l2 0 0 3 -2 0 0 -3zm0 -4l2 0 0 2 -2 0 0 -2zm0 -9l2 0 0 2 -2 0 0 -2zm0 -9l2 0 0 2 -2 0 0 -2zm0 -5l2 0 0 3 -2 0 0 -3zm-4 41l2 0 0 3 -2 0 0 -3zm0 -9l2 0 0 3 -2 0 0 -3zm0 -14l2 0 0 3 -2 0 0 -3zm0 -9l2 0 0 3 -2 0 0 -3zm0 -4l2 0 0 2 -2 0 0 -2zm-4 31l2 0 0 3 -2 0 0 -3zm0 -9l2 0 0 3 -2 0 0 -3zm0 -9l2 0 0 3 -2 0 0 -3zm0 -4l2 0 0 2 -2 0 0 -2zm0 -5l2 0 0 3 -2 0 0 -3zm0 -9l2 0 0 3 -2 0 0 -3zm-5 41l3 0 0 3 -3 0 0 -3zm0 -23l3 0 0 3 -3 0 0 -3zm0 -13l3 0 0 2 -3 0 0 -2zm0 -5l3 0 0 3 -3 0 0 -3zm9 -4l2 0 0 2 -2 0 0 -2zm-4 0l2 0 0 2 -2 0 0 -2zm-58 2l2 0 0 3 -2 0 0 -3zm0 -4l2 0 0 2 -2 0 0 -2zm0 -10l2 0 0 3 -2 0 0 -3zm0 -4l2 0 0 3 -2 0 0 -3zm0 -9l2 0 0 3 -2 0 0 -3zm0 -5l2 0 0 3 -2 0 0 -3zm0 -4l2 0 0 3 -2 0 0 -3zm-4 32l2 0 0 2 -2 0 0 -2zm0 -5l2 0 0 3 -2 0 0 -3zm0 -5l2 0 0 3 -2 0 0 -3zm0 -9l2 0 0 3 -2 0 0 -3zm0 -4l2 0 0 3 -2 0 0 -3zm0 -9l2 0 0 3 -2 0 0 -3zm0 -5l2 0 0 3 -2 0 0 -3zm-4 41l2 0 0 3 -2 0 0 -3zm0 -9l2 0 0 3 -2 0 0 -3zm0 -5l2 0 0 3 -2 0 0 -3zm0 -4l2 0 0 3 -2 0 0 -3zm0 -9l2 0 0 3 -2 0 0 -3zm0 -5l2 0 0 3 -2 0 0 -3zm0 -4l2 0 0 3 -2 0 0 -3zm-5 32l3 0 0 2 -3 0 0 -2zm0 -5l3 0 0 3 -3 0 0 -3zm0 -9l3 0 0 3 -3 0 0 -3zm0 -5l3 0 0 3 -3 0 0 -3zm0 -4l3 0 0 3 -3 0 0 -3zm9 -18l2 0 0 2 -2 0 0 -2zm-9 0l3 0 0 2 -3 0 0 -2zm-100 83l3 0 0 4 -3 0 0 -4zm0 -12l3 0 0 4 -3 0 0 -4zm0 -12l3 0 0 3 -3 0 0 -3zm0 -13l3 0 0 4 -3 0 0 -4zm0 -12l3 0 0 4 -3 0 0 -4zm0 -6l3 0 0 4 -3 0 0 -4zm-5 49l3 0 0 4 -3 0 0 -4zm0 -6l3 0 0 4 -3 0 0 -4zm0 -6l3 0 0 3 -3 0 0 -3zm0 -12l3 0 0 3 -3 0 0 -3zm0 -7l3 0 0 4 -3 0 0 -4zm0 -6l3 0 0 4 -3 0 0 -4zm0 -6l3 0 0 4 -3 0 0 -4zm0 -6l3 0 0 4 -3 0 0 -4zm-6 55l3 0 0 4 -3 0 0 -4zm0 -6l3 0 0 4 -3 0 0 -4zm0 -12l3 0 0 3 -3 0 0 -3zm0 -6l3 0 0 3 -3 0 0 -3zm0 -13l3 0 0 4 -3 0 0 -4zm0 -6l3 0 0 4 -3 0 0 -4zm0 -6l3 0 0 4 -3 0 0 -4zm0 -6l3 0 0 4 -3 0 0 -4zm-6 43l3 0 0 4 -3 0 0 -4zm0 -12l3 0 0 3 -3 0 0 -3zm0 -6l3 0 0 3 -3 0 0 -3zm0 -13l3 0 0 4 -3 0 0 -4zm0 -12l3 0 0 4 -3 0 0 -4zm17 -6l3 0 0 4 -3 0 0 -4zm-11 0l3 0 0 4 -3 0 0 -4zm-6 0l3 0 0 4 -3 0 0 -4z"/></g></svg></svg> <defs><filter id="colors3991734276"><feColorMatrix type="matrix" values="0 0 0 0 0.29296875  0 0 0 0 0.29296875  0 0 0 0 0.30078125  0 0 0 1 0" class="icon-fecolormatrix"/></filter> <filter id="colorsf5455874882"><feColorMatrix type="matrix" values="0 0 0 0 0.99609375  0 0 0 0 0.99609375  0 0 0 0 0.99609375  0 0 0 1 0" class="icon-fecolormatrix"/></filter> <filter id="colorsb6058097437"><feColorMatrix type="matrix" values="0 0 0 0 0  0 0 0 0 0  0 0 0 0 0  0 0 0 1 0" class="icon-fecolormatrix"/></filter></defs></g></g></mask>
  </svg>
</svg>


